<?xml version="1.0" encoding="utf-8" standalone="no"?>
<!DOCTYPE svg PUBLIC "-//W3C//DTD SVG 1.1//EN"
  "http://www.w3.org/Graphics/SVG/1.1/DTD/svg11.dtd">
<svg xmlns:xlink="http://www.w3.org/1999/xlink" width="1008pt" height="288pt" viewBox="0 0 1008 288" xmlns="http://www.w3.org/2000/svg" version="1.1">
 <metadata>
  <rdf:RDF xmlns:dc="http://purl.org/dc/elements/1.1/" xmlns:cc="http://creativecommons.org/ns#" xmlns:rdf="http://www.w3.org/1999/02/22-rdf-syntax-ns#">
   <cc:Work>
    <dc:type rdf:resource="http://purl.org/dc/dcmitype/StillImage"/>
    <dc:date>2025-11-09T06:23:38.448552</dc:date>
    <dc:format>image/svg+xml</dc:format>
    <dc:creator>
     <cc:Agent>
      <dc:title>Matplotlib v3.10.0, https://matplotlib.org/</dc:title>
     </cc:Agent>
    </dc:creator>
   </cc:Work>
  </rdf:RDF>
 </metadata>
 <defs>
  <style type="text/css">*{stroke-linejoin: round; stroke-linecap: butt}</style>
 </defs>
 <g id="figure_1">
  <g id="patch_1">
   <path d="M 0 288 
L 1008 288 
L 1008 0 
L 0 0 
z
" style="fill: #ffffff"/>
  </g>
  <g id="axes_1">
   <g id="patch_2">
    <path d="M 73.505 246.04 
L 997.2 246.04 
L 997.2 26.16 
L 73.505 26.16 
z
" style="fill: #ffffff"/>
   </g>
   <g id="patch_3">
    <path d="M 115.491136 246.04 
L 121.722845 246.04 
L 121.722845 204.425262 
L 115.491136 204.425262 
z
" clip-path="url(#p951f647d79)" style="fill: #4682b4"/>
   </g>
   <g id="patch_4">
    <path d="M 123.280772 246.04 
L 129.512481 246.04 
L 129.512481 180.657925 
L 123.280772 180.657925 
z
" clip-path="url(#p951f647d79)" style="fill: #4682b4"/>
   </g>
   <g id="patch_5">
    <path d="M 131.070408 246.04 
L 137.302116 246.04 
L 137.302116 183.039892 
L 131.070408 183.039892 
z
" clip-path="url(#p951f647d79)" style="fill: #4682b4"/>
   </g>
   <g id="patch_6">
    <path d="M 138.860043 246.04 
L 145.091752 246.04 
L 145.091752 181.445741 
L 138.860043 181.445741 
z
" clip-path="url(#p951f647d79)" style="fill: #4682b4"/>
   </g>
   <g id="patch_7">
    <path d="M 146.649679 246.04 
L 152.881388 246.04 
L 152.881388 207.275299 
L 146.649679 207.275299 
z
" clip-path="url(#p951f647d79)" style="fill: #4682b4"/>
   </g>
   <g id="patch_8">
    <path d="M 154.439315 246.04 
L 160.671023 246.04 
L 160.671023 160.972684 
L 154.439315 160.972684 
z
" clip-path="url(#p951f647d79)" style="fill: #4682b4"/>
   </g>
   <g id="patch_9">
    <path d="M 162.22895 246.04 
L 168.460659 246.04 
L 168.460659 182.858507 
L 162.22895 182.858507 
z
" clip-path="url(#p951f647d79)" style="fill: #4682b4"/>
   </g>
   <g id="patch_10">
    <path d="M 170.018586 246.04 
L 176.250295 246.04 
L 176.250295 168.018077 
L 170.018586 168.018077 
z
" clip-path="url(#p951f647d79)" style="fill: #4682b4"/>
   </g>
   <g id="patch_11">
    <path d="M 177.808222 246.04 
L 184.03993 246.04 
L 184.03993 200.69781 
L 177.808222 200.69781 
z
" clip-path="url(#p951f647d79)" style="fill: #4682b4"/>
   </g>
   <g id="patch_12">
    <path d="M 185.597858 246.04 
L 191.829566 246.04 
L 191.829566 202.011847 
L 185.597858 202.011847 
z
" clip-path="url(#p951f647d79)" style="fill: #4682b4"/>
   </g>
   <g id="patch_13">
    <path d="M 193.387493 246.04 
L 199.619202 246.04 
L 199.619202 171.166657 
L 193.387493 171.166657 
z
" clip-path="url(#p951f647d79)" style="fill: #4682b4"/>
   </g>
   <g id="patch_14">
    <path d="M 201.177129 246.04 
L 207.408837 246.04 
L 207.408837 185.312898 
L 201.177129 185.312898 
z
" clip-path="url(#p951f647d79)" style="fill: #4682b4"/>
   </g>
   <g id="patch_15">
    <path d="M 208.966765 246.04 
L 215.198473 246.04 
L 215.198473 192.960612 
L 208.966765 192.960612 
z
" clip-path="url(#p951f647d79)" style="fill: #4682b4"/>
   </g>
   <g id="patch_16">
    <path d="M 216.7564 246.04 
L 222.988109 246.04 
L 222.988109 224.248384 
L 216.7564 224.248384 
z
" clip-path="url(#p951f647d79)" style="fill: #4682b4"/>
   </g>
   <g id="patch_17">
    <path d="M 224.546036 246.04 
L 230.777745 246.04 
L 230.777745 103.066724 
L 224.546036 103.066724 
z
" clip-path="url(#p951f647d79)" style="fill: #4682b4"/>
   </g>
   <g id="patch_18">
    <path d="M 232.335672 246.04 
L 238.56738 246.04 
L 238.56738 208.147453 
L 232.335672 208.147453 
z
" clip-path="url(#p951f647d79)" style="fill: #4682b4"/>
   </g>
   <g id="patch_19">
    <path d="M 240.125307 246.04 
L 246.357016 246.04 
L 246.357016 178.620379 
L 240.125307 178.620379 
z
" clip-path="url(#p951f647d79)" style="fill: #4682b4"/>
   </g>
   <g id="patch_20">
    <path d="M 247.914943 246.04 
L 254.146652 246.04 
L 254.146652 96.459992 
L 247.914943 96.459992 
z
" clip-path="url(#p951f647d79)" style="fill: #4682b4"/>
   </g>
   <g id="patch_21">
    <path d="M 255.704579 246.04 
L 261.936287 246.04 
L 261.936287 115.689271 
L 255.704579 115.689271 
z
" clip-path="url(#p951f647d79)" style="fill: #4682b4"/>
   </g>
   <g id="patch_22">
    <path d="M 263.494214 246.04 
L 269.725923 246.04 
L 269.725923 159.266844 
L 263.494214 159.266844 
z
" clip-path="url(#p951f647d79)" style="fill: #4682b4"/>
   </g>
   <g id="patch_23">
    <path d="M 271.28385 246.04 
L 277.515559 246.04 
L 277.515559 163.821085 
L 271.28385 163.821085 
z
" clip-path="url(#p951f647d79)" style="fill: #4682b4"/>
   </g>
   <g id="patch_24">
    <path d="M 279.073486 246.04 
L 285.305194 246.04 
L 285.305194 151.652954 
L 279.073486 151.652954 
z
" clip-path="url(#p951f647d79)" style="fill: #4682b4"/>
   </g>
   <g id="patch_25">
    <path d="M 286.863122 246.04 
L 293.09483 246.04 
L 293.09483 202.35661 
L 286.863122 202.35661 
z
" clip-path="url(#p951f647d79)" style="fill: #4682b4"/>
   </g>
   <g id="patch_26">
    <path d="M 294.652757 246.04 
L 300.884466 246.04 
L 300.884466 172.229304 
L 294.652757 172.229304 
z
" clip-path="url(#p951f647d79)" style="fill: #4682b4"/>
   </g>
   <g id="patch_27">
    <path d="M 302.442393 246.04 
L 308.674101 246.04 
L 308.674101 52.916057 
L 302.442393 52.916057 
z
" clip-path="url(#p951f647d79)" style="fill: #4682b4"/>
   </g>
   <g id="patch_28">
    <path d="M 310.232029 246.04 
L 316.463737 246.04 
L 316.463737 136.361957 
L 310.232029 136.361957 
z
" clip-path="url(#p951f647d79)" style="fill: #4682b4"/>
   </g>
   <g id="patch_29">
    <path d="M 318.021664 246.04 
L 324.253373 246.04 
L 324.253373 56.124205 
L 318.021664 56.124205 
z
" clip-path="url(#p951f647d79)" style="fill: #4682b4"/>
   </g>
   <g id="patch_30">
    <path d="M 325.8113 246.04 
L 332.043009 246.04 
L 332.043009 123.854644 
L 325.8113 123.854644 
z
" clip-path="url(#p951f647d79)" style="fill: #4682b4"/>
   </g>
   <g id="patch_31">
    <path d="M 333.600936 246.04 
L 339.832644 246.04 
L 339.832644 69.832417 
L 333.600936 69.832417 
z
" clip-path="url(#p951f647d79)" style="fill: #4682b4"/>
   </g>
   <g id="patch_32">
    <path d="M 341.390571 246.04 
L 347.62228 246.04 
L 347.62228 105.355505 
L 341.390571 105.355505 
z
" clip-path="url(#p951f647d79)" style="fill: #4682b4"/>
   </g>
   <g id="patch_33">
    <path d="M 349.180207 246.04 
L 355.411916 246.04 
L 355.411916 140.554082 
L 349.180207 140.554082 
z
" clip-path="url(#p951f647d79)" style="fill: #4682b4"/>
   </g>
   <g id="patch_34">
    <path d="M 356.969843 246.04 
L 363.201551 246.04 
L 363.201551 36.630476 
L 356.969843 36.630476 
z
" clip-path="url(#p951f647d79)" style="fill: #4682b4"/>
   </g>
   <g id="patch_35">
    <path d="M 364.759478 246.04 
L 370.991187 246.04 
L 370.991187 95.418901 
L 364.759478 95.418901 
z
" clip-path="url(#p951f647d79)" style="fill: #4682b4"/>
   </g>
   <g id="patch_36">
    <path d="M 372.549114 246.04 
L 378.780823 246.04 
L 378.780823 155.700153 
L 372.549114 155.700153 
z
" clip-path="url(#p951f647d79)" style="fill: #4682b4"/>
   </g>
   <g id="patch_37">
    <path d="M 380.33875 246.04 
L 386.570458 246.04 
L 386.570458 85.274742 
L 380.33875 85.274742 
z
" clip-path="url(#p951f647d79)" style="fill: #4682b4"/>
   </g>
   <g id="patch_38">
    <path d="M 388.128385 246.04 
L 394.360094 246.04 
L 394.360094 122.857592 
L 388.128385 122.857592 
z
" clip-path="url(#p951f647d79)" style="fill: #4682b4"/>
   </g>
   <g id="patch_39">
    <path d="M 395.918021 246.04 
L 402.14973 246.04 
L 402.14973 122.633623 
L 395.918021 122.633623 
z
" clip-path="url(#p951f647d79)" style="fill: #4682b4"/>
   </g>
   <g id="patch_40">
    <path d="M 403.707657 246.04 
L 409.939365 246.04 
L 409.939365 116.039804 
L 403.707657 116.039804 
z
" clip-path="url(#p951f647d79)" style="fill: #4682b4"/>
   </g>
   <g id="patch_41">
    <path d="M 411.497293 246.04 
L 417.729001 246.04 
L 417.729001 165.995069 
L 411.497293 165.995069 
z
" clip-path="url(#p951f647d79)" style="fill: #4682b4"/>
   </g>
   <g id="patch_42">
    <path d="M 419.286928 246.04 
L 425.518637 246.04 
L 425.518637 113.2847 
L 419.286928 113.2847 
z
" clip-path="url(#p951f647d79)" style="fill: #4682b4"/>
   </g>
   <g id="patch_43">
    <path d="M 427.076564 246.04 
L 433.308272 246.04 
L 433.308272 113.034555 
L 427.076564 113.034555 
z
" clip-path="url(#p951f647d79)" style="fill: #4682b4"/>
   </g>
   <g id="patch_44">
    <path d="M 434.8662 246.04 
L 441.097908 246.04 
L 441.097908 114.634113 
L 434.8662 114.634113 
z
" clip-path="url(#p951f647d79)" style="fill: #4682b4"/>
   </g>
   <g id="patch_45">
    <path d="M 442.655835 246.04 
L 448.887544 246.04 
L 448.887544 96.19692 
L 442.655835 96.19692 
z
" clip-path="url(#p951f647d79)" style="fill: #4682b4"/>
   </g>
   <g id="patch_46">
    <path d="M 450.445471 246.04 
L 456.67718 246.04 
L 456.67718 141.45133 
L 450.445471 141.45133 
z
" clip-path="url(#p951f647d79)" style="fill: #4682b4"/>
   </g>
   <g id="patch_47">
    <path d="M 458.235107 246.04 
L 464.466815 246.04 
L 464.466815 140.521252 
L 458.235107 140.521252 
z
" clip-path="url(#p951f647d79)" style="fill: #4682b4"/>
   </g>
   <g id="patch_48">
    <path d="M 466.024742 246.04 
L 472.256451 246.04 
L 472.256451 139.697406 
L 466.024742 139.697406 
z
" clip-path="url(#p951f647d79)" style="fill: #4682b4"/>
   </g>
   <g id="patch_49">
    <path d="M 473.814378 246.04 
L 480.046087 246.04 
L 480.046087 113.122747 
L 473.814378 113.122747 
z
" clip-path="url(#p951f647d79)" style="fill: #4682b4"/>
   </g>
   <g id="patch_50">
    <path d="M 481.604014 246.04 
L 487.835722 246.04 
L 487.835722 108.068819 
L 481.604014 108.068819 
z
" clip-path="url(#p951f647d79)" style="fill: #4682b4"/>
   </g>
   <g id="patch_51">
    <path d="M 489.393649 246.04 
L 495.625358 246.04 
L 495.625358 118.929137 
L 489.393649 118.929137 
z
" clip-path="url(#p951f647d79)" style="fill: #4682b4"/>
   </g>
   <g id="patch_52">
    <path d="M 497.183285 246.04 
L 503.414994 246.04 
L 503.414994 71.950454 
L 497.183285 71.950454 
z
" clip-path="url(#p951f647d79)" style="fill: #4682b4"/>
   </g>
   <g id="patch_53">
    <path d="M 504.972921 246.04 
L 511.204629 246.04 
L 511.204629 76.744025 
L 504.972921 76.744025 
z
" clip-path="url(#p951f647d79)" style="fill: #4682b4"/>
   </g>
   <g id="patch_54">
    <path d="M 512.762557 246.04 
L 518.994265 246.04 
L 518.994265 136.407241 
L 512.762557 136.407241 
z
" clip-path="url(#p951f647d79)" style="fill: #4682b4"/>
   </g>
   <g id="patch_55">
    <path d="M 520.552192 246.04 
L 526.783901 246.04 
L 526.783901 129.11166 
L 520.552192 129.11166 
z
" clip-path="url(#p951f647d79)" style="fill: #4682b4"/>
   </g>
   <g id="patch_56">
    <path d="M 528.341828 246.04 
L 534.573536 246.04 
L 534.573536 122.502811 
L 528.341828 122.502811 
z
" clip-path="url(#p951f647d79)" style="fill: #4682b4"/>
   </g>
   <g id="patch_57">
    <path d="M 536.131464 246.04 
L 542.363172 246.04 
L 542.363172 115.917896 
L 536.131464 115.917896 
z
" clip-path="url(#p951f647d79)" style="fill: #4682b4"/>
   </g>
   <g id="patch_58">
    <path d="M 543.921099 246.04 
L 550.152808 246.04 
L 550.152808 138.60475 
L 543.921099 138.60475 
z
" clip-path="url(#p951f647d79)" style="fill: #4682b4"/>
   </g>
   <g id="patch_59">
    <path d="M 551.710735 246.04 
L 557.942443 246.04 
L 557.942443 136.560987 
L 551.710735 136.560987 
z
" clip-path="url(#p951f647d79)" style="fill: #4682b4"/>
   </g>
   <g id="patch_60">
    <path d="M 559.500371 246.04 
L 565.732079 246.04 
L 565.732079 126.691188 
L 559.500371 126.691188 
z
" clip-path="url(#p951f647d79)" style="fill: #4682b4"/>
   </g>
   <g id="patch_61">
    <path d="M 567.290006 246.04 
L 573.521715 246.04 
L 573.521715 139.125675 
L 567.290006 139.125675 
z
" clip-path="url(#p951f647d79)" style="fill: #4682b4"/>
   </g>
   <g id="patch_62">
    <path d="M 575.079642 246.04 
L 581.311351 246.04 
L 581.311351 119.2074 
L 575.079642 119.2074 
z
" clip-path="url(#p951f647d79)" style="fill: #4682b4"/>
   </g>
   <g id="patch_63">
    <path d="M 582.869278 246.04 
L 589.100986 246.04 
L 589.100986 129.206773 
L 582.869278 129.206773 
z
" clip-path="url(#p951f647d79)" style="fill: #4682b4"/>
   </g>
   <g id="patch_64">
    <path d="M 590.658913 246.04 
L 596.890622 246.04 
L 596.890622 124.21446 
L 590.658913 124.21446 
z
" clip-path="url(#p951f647d79)" style="fill: #4682b4"/>
   </g>
   <g id="patch_65">
    <path d="M 598.448549 246.04 
L 604.680258 246.04 
L 604.680258 129.163781 
L 598.448549 129.163781 
z
" clip-path="url(#p951f647d79)" style="fill: #4682b4"/>
   </g>
   <g id="patch_66">
    <path d="M 606.238185 246.04 
L 612.469893 246.04 
L 612.469893 126.208423 
L 606.238185 126.208423 
z
" clip-path="url(#p951f647d79)" style="fill: #4682b4"/>
   </g>
   <g id="patch_67">
    <path d="M 614.02782 246.04 
L 620.259529 246.04 
L 620.259529 116.112186 
L 614.02782 116.112186 
z
" clip-path="url(#p951f647d79)" style="fill: #4682b4"/>
   </g>
   <g id="patch_68">
    <path d="M 621.817456 246.04 
L 628.049165 246.04 
L 628.049165 119.83455 
L 621.817456 119.83455 
z
" clip-path="url(#p951f647d79)" style="fill: #4682b4"/>
   </g>
   <g id="patch_69">
    <path d="M 629.607092 246.04 
L 635.8388 246.04 
L 635.8388 113.289553 
L 629.607092 113.289553 
z
" clip-path="url(#p951f647d79)" style="fill: #4682b4"/>
   </g>
   <g id="patch_70">
    <path d="M 637.396728 246.04 
L 643.628436 246.04 
L 643.628436 132.187259 
L 637.396728 132.187259 
z
" clip-path="url(#p951f647d79)" style="fill: #4682b4"/>
   </g>
   <g id="patch_71">
    <path d="M 645.186363 246.04 
L 651.418072 246.04 
L 651.418072 152.413786 
L 645.186363 152.413786 
z
" clip-path="url(#p951f647d79)" style="fill: #4682b4"/>
   </g>
   <g id="patch_72">
    <path d="M 652.975999 246.04 
L 659.207707 246.04 
L 659.207707 115.603329 
L 652.975999 115.603329 
z
" clip-path="url(#p951f647d79)" style="fill: #4682b4"/>
   </g>
   <g id="patch_73">
    <path d="M 660.765635 246.04 
L 666.997343 246.04 
L 666.997343 127.292682 
L 660.765635 127.292682 
z
" clip-path="url(#p951f647d79)" style="fill: #4682b4"/>
   </g>
   <g id="patch_74">
    <path d="M 668.55527 246.04 
L 674.786979 246.04 
L 674.786979 126.282915 
L 668.55527 126.282915 
z
" clip-path="url(#p951f647d79)" style="fill: #4682b4"/>
   </g>
   <g id="patch_75">
    <path d="M 676.344906 246.04 
L 682.576615 246.04 
L 682.576615 106.342205 
L 676.344906 106.342205 
z
" clip-path="url(#p951f647d79)" style="fill: #4682b4"/>
   </g>
   <g id="patch_76">
    <path d="M 684.134542 246.04 
L 690.36625 246.04 
L 690.36625 109.879857 
L 684.134542 109.879857 
z
" clip-path="url(#p951f647d79)" style="fill: #4682b4"/>
   </g>
   <g id="patch_77">
    <path d="M 691.924177 246.04 
L 698.155886 246.04 
L 698.155886 133.658088 
L 691.924177 133.658088 
z
" clip-path="url(#p951f647d79)" style="fill: #4682b4"/>
   </g>
   <g id="patch_78">
    <path d="M 699.713813 246.04 
L 705.945522 246.04 
L 705.945522 129.81696 
L 699.713813 129.81696 
z
" clip-path="url(#p951f647d79)" style="fill: #4682b4"/>
   </g>
   <g id="patch_79">
    <path d="M 707.503449 246.04 
L 713.735157 246.04 
L 713.735157 130.611042 
L 707.503449 130.611042 
z
" clip-path="url(#p951f647d79)" style="fill: #4682b4"/>
   </g>
   <g id="patch_80">
    <path d="M 715.293084 246.04 
L 721.524793 246.04 
L 721.524793 121.575244 
L 715.293084 121.575244 
z
" clip-path="url(#p951f647d79)" style="fill: #4682b4"/>
   </g>
   <g id="patch_81">
    <path d="M 723.08272 246.04 
L 729.314429 246.04 
L 729.314429 117.898918 
L 723.08272 117.898918 
z
" clip-path="url(#p951f647d79)" style="fill: #4682b4"/>
   </g>
   <g id="patch_82">
    <path d="M 730.872356 246.04 
L 737.104064 246.04 
L 737.104064 129.755858 
L 730.872356 129.755858 
z
" clip-path="url(#p951f647d79)" style="fill: #4682b4"/>
   </g>
   <g id="patch_83">
    <path d="M 738.661991 246.04 
L 744.8937 246.04 
L 744.8937 133.298103 
L 738.661991 133.298103 
z
" clip-path="url(#p951f647d79)" style="fill: #4682b4"/>
   </g>
   <g id="patch_84">
    <path d="M 746.451627 246.04 
L 752.683336 246.04 
L 752.683336 145.89225 
L 746.451627 145.89225 
z
" clip-path="url(#p951f647d79)" style="fill: #4682b4"/>
   </g>
   <g id="patch_85">
    <path d="M 754.241263 246.04 
L 760.472971 246.04 
L 760.472971 113.088455 
L 754.241263 113.088455 
z
" clip-path="url(#p951f647d79)" style="fill: #4682b4"/>
   </g>
   <g id="patch_86">
    <path d="M 762.030899 246.04 
L 768.262607 246.04 
L 768.262607 124.121415 
L 762.030899 124.121415 
z
" clip-path="url(#p951f647d79)" style="fill: #4682b4"/>
   </g>
   <g id="patch_87">
    <path d="M 769.820534 246.04 
L 776.052243 246.04 
L 776.052243 113.352005 
L 769.820534 113.352005 
z
" clip-path="url(#p951f647d79)" style="fill: #4682b4"/>
   </g>
   <g id="patch_88">
    <path d="M 777.61017 246.04 
L 783.841878 246.04 
L 783.841878 109.182026 
L 777.61017 109.182026 
z
" clip-path="url(#p951f647d79)" style="fill: #4682b4"/>
   </g>
   <g id="patch_89">
    <path d="M 785.399806 246.04 
L 791.631514 246.04 
L 791.631514 104.393984 
L 785.399806 104.393984 
z
" clip-path="url(#p951f647d79)" style="fill: #4682b4"/>
   </g>
   <g id="patch_90">
    <path d="M 793.189441 246.04 
L 799.42115 246.04 
L 799.42115 111.532711 
L 793.189441 111.532711 
z
" clip-path="url(#p951f647d79)" style="fill: #4682b4"/>
   </g>
   <g id="patch_91">
    <path d="M 800.979077 246.04 
L 807.210786 246.04 
L 807.210786 110.017026 
L 800.979077 110.017026 
z
" clip-path="url(#p951f647d79)" style="fill: #4682b4"/>
   </g>
   <g id="patch_92">
    <path d="M 808.768713 246.04 
L 815.000421 246.04 
L 815.000421 111.467544 
L 808.768713 111.467544 
z
" clip-path="url(#p951f647d79)" style="fill: #4682b4"/>
   </g>
   <g id="patch_93">
    <path d="M 816.558348 246.04 
L 822.790057 246.04 
L 822.790057 103.951629 
L 816.558348 103.951629 
z
" clip-path="url(#p951f647d79)" style="fill: #4682b4"/>
   </g>
   <g id="patch_94">
    <path d="M 824.347984 246.04 
L 830.579693 246.04 
L 830.579693 121.787849 
L 824.347984 121.787849 
z
" clip-path="url(#p951f647d79)" style="fill: #4682b4"/>
   </g>
   <g id="patch_95">
    <path d="M 832.13762 246.04 
L 838.369328 246.04 
L 838.369328 107.140718 
L 832.13762 107.140718 
z
" clip-path="url(#p951f647d79)" style="fill: #4682b4"/>
   </g>
   <g id="patch_96">
    <path d="M 839.927255 246.04 
L 846.158964 246.04 
L 846.158964 109.913446 
L 839.927255 109.913446 
z
" clip-path="url(#p951f647d79)" style="fill: #4682b4"/>
   </g>
   <g id="patch_97">
    <path d="M 847.716891 246.04 
L 853.9486 246.04 
L 853.9486 119.575599 
L 847.716891 119.575599 
z
" clip-path="url(#p951f647d79)" style="fill: #4682b4"/>
   </g>
   <g id="patch_98">
    <path d="M 855.506527 246.04 
L 861.738235 246.04 
L 861.738235 115.175744 
L 855.506527 115.175744 
z
" clip-path="url(#p951f647d79)" style="fill: #4682b4"/>
   </g>
   <g id="patch_99">
    <path d="M 863.296163 246.04 
L 869.527871 246.04 
L 869.527871 117.026081 
L 863.296163 117.026081 
z
" clip-path="url(#p951f647d79)" style="fill: #4682b4"/>
   </g>
   <g id="patch_100">
    <path d="M 871.085798 246.04 
L 877.317507 246.04 
L 877.317507 108.050689 
L 871.085798 108.050689 
z
" clip-path="url(#p951f647d79)" style="fill: #4682b4"/>
   </g>
   <g id="patch_101">
    <path d="M 878.875434 246.04 
L 885.107142 246.04 
L 885.107142 102.933774 
L 878.875434 102.933774 
z
" clip-path="url(#p951f647d79)" style="fill: #4682b4"/>
   </g>
   <g id="patch_102">
    <path d="M 886.66507 246.04 
L 892.896778 246.04 
L 892.896778 113.829974 
L 886.66507 113.829974 
z
" clip-path="url(#p951f647d79)" style="fill: #4682b4"/>
   </g>
   <g id="patch_103">
    <path d="M 894.454705 246.04 
L 900.686414 246.04 
L 900.686414 111.219776 
L 894.454705 111.219776 
z
" clip-path="url(#p951f647d79)" style="fill: #4682b4"/>
   </g>
   <g id="patch_104">
    <path d="M 902.244341 246.04 
L 908.47605 246.04 
L 908.47605 107.389738 
L 902.244341 107.389738 
z
" clip-path="url(#p951f647d79)" style="fill: #4682b4"/>
   </g>
   <g id="patch_105">
    <path d="M 910.033977 246.04 
L 916.265685 246.04 
L 916.265685 108.569842 
L 910.033977 108.569842 
z
" clip-path="url(#p951f647d79)" style="fill: #4682b4"/>
   </g>
   <g id="patch_106">
    <path d="M 917.823612 246.04 
L 924.055321 246.04 
L 924.055321 106.778989 
L 917.823612 106.778989 
z
" clip-path="url(#p951f647d79)" style="fill: #4682b4"/>
   </g>
   <g id="patch_107">
    <path d="M 925.613248 246.04 
L 931.844957 246.04 
L 931.844957 112.603903 
L 925.613248 112.603903 
z
" clip-path="url(#p951f647d79)" style="fill: #4682b4"/>
   </g>
   <g id="patch_108">
    <path d="M 933.402884 246.04 
L 939.634592 246.04 
L 939.634592 115.95773 
L 933.402884 115.95773 
z
" clip-path="url(#p951f647d79)" style="fill: #4682b4"/>
   </g>
   <g id="patch_109">
    <path d="M 941.192519 246.04 
L 947.424228 246.04 
L 947.424228 113.103041 
L 941.192519 113.103041 
z
" clip-path="url(#p951f647d79)" style="fill: #4682b4"/>
   </g>
   <g id="patch_110">
    <path d="M 948.982155 246.04 
L 955.213864 246.04 
L 955.213864 113.170571 
L 948.982155 113.170571 
z
" clip-path="url(#p951f647d79)" style="fill: #4682b4"/>
   </g>
   <g id="matplotlib.axis_1">
    <g id="xtick_1">
     <g id="line2d_1">
      <defs>
       <path id="me3109b045d" d="M 0 0 
L 0 3.5 
" style="stroke: #000000; stroke-width: 0.8"/>
      </defs>
      <g>
       <use xlink:href="#me3109b045d" x="118.606991" y="246.04" style="stroke: #000000; stroke-width: 0.8"/>
      </g>
     </g>
     <g id="text_1">
      <!-- 0 -->
      <g transform="translate(115.425741 260.638438) scale(0.1 -0.1)">
       <defs>
        <path id="DejaVuSans-30" d="M 2034 4250 
Q 1547 4250 1301 3770 
Q 1056 3291 1056 2328 
Q 1056 1369 1301 889 
Q 1547 409 2034 409 
Q 2525 409 2770 889 
Q 3016 1369 3016 2328 
Q 3016 3291 2770 3770 
Q 2525 4250 2034 4250 
z
M 2034 4750 
Q 2819 4750 3233 4129 
Q 3647 3509 3647 2328 
Q 3647 1150 3233 529 
Q 2819 -91 2034 -91 
Q 1250 -91 836 529 
Q 422 1150 422 2328 
Q 422 3509 836 4129 
Q 1250 4750 2034 4750 
z
" transform="scale(0.015625)"/>
       </defs>
       <use xlink:href="#DejaVuSans-30"/>
      </g>
     </g>
    </g>
    <g id="xtick_2">
     <g id="line2d_2">
      <g>
       <use xlink:href="#me3109b045d" x="274.399704" y="246.04" style="stroke: #000000; stroke-width: 0.8"/>
      </g>
     </g>
     <g id="text_2">
      <!-- 20 -->
      <g transform="translate(268.037204 260.638438) scale(0.1 -0.1)">
       <defs>
        <path id="DejaVuSans-32" d="M 1228 531 
L 3431 531 
L 3431 0 
L 469 0 
L 469 531 
Q 828 903 1448 1529 
Q 2069 2156 2228 2338 
Q 2531 2678 2651 2914 
Q 2772 3150 2772 3378 
Q 2772 3750 2511 3984 
Q 2250 4219 1831 4219 
Q 1534 4219 1204 4116 
Q 875 4013 500 3803 
L 500 4441 
Q 881 4594 1212 4672 
Q 1544 4750 1819 4750 
Q 2544 4750 2975 4387 
Q 3406 4025 3406 3419 
Q 3406 3131 3298 2873 
Q 3191 2616 2906 2266 
Q 2828 2175 2409 1742 
Q 1991 1309 1228 531 
z
" transform="scale(0.015625)"/>
       </defs>
       <use xlink:href="#DejaVuSans-32"/>
       <use xlink:href="#DejaVuSans-30" transform="translate(63.623047 0)"/>
      </g>
     </g>
    </g>
    <g id="xtick_3">
     <g id="line2d_3">
      <g>
       <use xlink:href="#me3109b045d" x="430.192418" y="246.04" style="stroke: #000000; stroke-width: 0.8"/>
      </g>
     </g>
     <g id="text_3">
      <!-- 40 -->
      <g transform="translate(423.829918 260.638438) scale(0.1 -0.1)">
       <defs>
        <path id="DejaVuSans-34" d="M 2419 4116 
L 825 1625 
L 2419 1625 
L 2419 4116 
z
M 2253 4666 
L 3047 4666 
L 3047 1625 
L 3713 1625 
L 3713 1100 
L 3047 1100 
L 3047 0 
L 2419 0 
L 2419 1100 
L 313 1100 
L 313 1709 
L 2253 4666 
z
" transform="scale(0.015625)"/>
       </defs>
       <use xlink:href="#DejaVuSans-34"/>
       <use xlink:href="#DejaVuSans-30" transform="translate(63.623047 0)"/>
      </g>
     </g>
    </g>
    <g id="xtick_4">
     <g id="line2d_4">
      <g>
       <use xlink:href="#me3109b045d" x="585.985132" y="246.04" style="stroke: #000000; stroke-width: 0.8"/>
      </g>
     </g>
     <g id="text_4">
      <!-- 60 -->
      <g transform="translate(579.622632 260.638438) scale(0.1 -0.1)">
       <defs>
        <path id="DejaVuSans-36" d="M 2113 2584 
Q 1688 2584 1439 2293 
Q 1191 2003 1191 1497 
Q 1191 994 1439 701 
Q 1688 409 2113 409 
Q 2538 409 2786 701 
Q 3034 994 3034 1497 
Q 3034 2003 2786 2293 
Q 2538 2584 2113 2584 
z
M 3366 4563 
L 3366 3988 
Q 3128 4100 2886 4159 
Q 2644 4219 2406 4219 
Q 1781 4219 1451 3797 
Q 1122 3375 1075 2522 
Q 1259 2794 1537 2939 
Q 1816 3084 2150 3084 
Q 2853 3084 3261 2657 
Q 3669 2231 3669 1497 
Q 3669 778 3244 343 
Q 2819 -91 2113 -91 
Q 1303 -91 875 529 
Q 447 1150 447 2328 
Q 447 3434 972 4092 
Q 1497 4750 2381 4750 
Q 2619 4750 2861 4703 
Q 3103 4656 3366 4563 
z
" transform="scale(0.015625)"/>
       </defs>
       <use xlink:href="#DejaVuSans-36"/>
       <use xlink:href="#DejaVuSans-30" transform="translate(63.623047 0)"/>
      </g>
     </g>
    </g>
    <g id="xtick_5">
     <g id="line2d_5">
      <g>
       <use xlink:href="#me3109b045d" x="741.777846" y="246.04" style="stroke: #000000; stroke-width: 0.8"/>
      </g>
     </g>
     <g id="text_5">
      <!-- 80 -->
      <g transform="translate(735.415346 260.638438) scale(0.1 -0.1)">
       <defs>
        <path id="DejaVuSans-38" d="M 2034 2216 
Q 1584 2216 1326 1975 
Q 1069 1734 1069 1313 
Q 1069 891 1326 650 
Q 1584 409 2034 409 
Q 2484 409 2743 651 
Q 3003 894 3003 1313 
Q 3003 1734 2745 1975 
Q 2488 2216 2034 2216 
z
M 1403 2484 
Q 997 2584 770 2862 
Q 544 3141 544 3541 
Q 544 4100 942 4425 
Q 1341 4750 2034 4750 
Q 2731 4750 3128 4425 
Q 3525 4100 3525 3541 
Q 3525 3141 3298 2862 
Q 3072 2584 2669 2484 
Q 3125 2378 3379 2068 
Q 3634 1759 3634 1313 
Q 3634 634 3220 271 
Q 2806 -91 2034 -91 
Q 1263 -91 848 271 
Q 434 634 434 1313 
Q 434 1759 690 2068 
Q 947 2378 1403 2484 
z
M 1172 3481 
Q 1172 3119 1398 2916 
Q 1625 2713 2034 2713 
Q 2441 2713 2670 2916 
Q 2900 3119 2900 3481 
Q 2900 3844 2670 4047 
Q 2441 4250 2034 4250 
Q 1625 4250 1398 4047 
Q 1172 3844 1172 3481 
z
" transform="scale(0.015625)"/>
       </defs>
       <use xlink:href="#DejaVuSans-38"/>
       <use xlink:href="#DejaVuSans-30" transform="translate(63.623047 0)"/>
      </g>
     </g>
    </g>
    <g id="xtick_6">
     <g id="line2d_6">
      <g>
       <use xlink:href="#me3109b045d" x="897.57056" y="246.04" style="stroke: #000000; stroke-width: 0.8"/>
      </g>
     </g>
     <g id="text_6">
      <!-- 100 -->
      <g transform="translate(888.02681 260.638438) scale(0.1 -0.1)">
       <defs>
        <path id="DejaVuSans-31" d="M 794 531 
L 1825 531 
L 1825 4091 
L 703 3866 
L 703 4441 
L 1819 4666 
L 2450 4666 
L 2450 531 
L 3481 531 
L 3481 0 
L 794 0 
L 794 531 
z
" transform="scale(0.015625)"/>
       </defs>
       <use xlink:href="#DejaVuSans-31"/>
       <use xlink:href="#DejaVuSans-30" transform="translate(63.623047 0)"/>
       <use xlink:href="#DejaVuSans-30" transform="translate(127.246094 0)"/>
      </g>
     </g>
    </g>
    <g id="text_7">
     <!-- Channel (across all layers) -->
     <g transform="translate(469.14 274.316562) scale(0.1 -0.1)">
      <defs>
       <path id="DejaVuSans-43" d="M 4122 4306 
L 4122 3641 
Q 3803 3938 3442 4084 
Q 3081 4231 2675 4231 
Q 1875 4231 1450 3742 
Q 1025 3253 1025 2328 
Q 1025 1406 1450 917 
Q 1875 428 2675 428 
Q 3081 428 3442 575 
Q 3803 722 4122 1019 
L 4122 359 
Q 3791 134 3420 21 
Q 3050 -91 2638 -91 
Q 1578 -91 968 557 
Q 359 1206 359 2328 
Q 359 3453 968 4101 
Q 1578 4750 2638 4750 
Q 3056 4750 3426 4639 
Q 3797 4528 4122 4306 
z
" transform="scale(0.015625)"/>
       <path id="DejaVuSans-68" d="M 3513 2113 
L 3513 0 
L 2938 0 
L 2938 2094 
Q 2938 2591 2744 2837 
Q 2550 3084 2163 3084 
Q 1697 3084 1428 2787 
Q 1159 2491 1159 1978 
L 1159 0 
L 581 0 
L 581 4863 
L 1159 4863 
L 1159 2956 
Q 1366 3272 1645 3428 
Q 1925 3584 2291 3584 
Q 2894 3584 3203 3211 
Q 3513 2838 3513 2113 
z
" transform="scale(0.015625)"/>
       <path id="DejaVuSans-61" d="M 2194 1759 
Q 1497 1759 1228 1600 
Q 959 1441 959 1056 
Q 959 750 1161 570 
Q 1363 391 1709 391 
Q 2188 391 2477 730 
Q 2766 1069 2766 1631 
L 2766 1759 
L 2194 1759 
z
M 3341 1997 
L 3341 0 
L 2766 0 
L 2766 531 
Q 2569 213 2275 61 
Q 1981 -91 1556 -91 
Q 1019 -91 701 211 
Q 384 513 384 1019 
Q 384 1609 779 1909 
Q 1175 2209 1959 2209 
L 2766 2209 
L 2766 2266 
Q 2766 2663 2505 2880 
Q 2244 3097 1772 3097 
Q 1472 3097 1187 3025 
Q 903 2953 641 2809 
L 641 3341 
Q 956 3463 1253 3523 
Q 1550 3584 1831 3584 
Q 2591 3584 2966 3190 
Q 3341 2797 3341 1997 
z
" transform="scale(0.015625)"/>
       <path id="DejaVuSans-6e" d="M 3513 2113 
L 3513 0 
L 2938 0 
L 2938 2094 
Q 2938 2591 2744 2837 
Q 2550 3084 2163 3084 
Q 1697 3084 1428 2787 
Q 1159 2491 1159 1978 
L 1159 0 
L 581 0 
L 581 3500 
L 1159 3500 
L 1159 2956 
Q 1366 3272 1645 3428 
Q 1925 3584 2291 3584 
Q 2894 3584 3203 3211 
Q 3513 2838 3513 2113 
z
" transform="scale(0.015625)"/>
       <path id="DejaVuSans-65" d="M 3597 1894 
L 3597 1613 
L 953 1613 
Q 991 1019 1311 708 
Q 1631 397 2203 397 
Q 2534 397 2845 478 
Q 3156 559 3463 722 
L 3463 178 
Q 3153 47 2828 -22 
Q 2503 -91 2169 -91 
Q 1331 -91 842 396 
Q 353 884 353 1716 
Q 353 2575 817 3079 
Q 1281 3584 2069 3584 
Q 2775 3584 3186 3129 
Q 3597 2675 3597 1894 
z
M 3022 2063 
Q 3016 2534 2758 2815 
Q 2500 3097 2075 3097 
Q 1594 3097 1305 2825 
Q 1016 2553 972 2059 
L 3022 2063 
z
" transform="scale(0.015625)"/>
       <path id="DejaVuSans-6c" d="M 603 4863 
L 1178 4863 
L 1178 0 
L 603 0 
L 603 4863 
z
" transform="scale(0.015625)"/>
       <path id="DejaVuSans-20" transform="scale(0.015625)"/>
       <path id="DejaVuSans-28" d="M 1984 4856 
Q 1566 4138 1362 3434 
Q 1159 2731 1159 2009 
Q 1159 1288 1364 580 
Q 1569 -128 1984 -844 
L 1484 -844 
Q 1016 -109 783 600 
Q 550 1309 550 2009 
Q 550 2706 781 3412 
Q 1013 4119 1484 4856 
L 1984 4856 
z
" transform="scale(0.015625)"/>
       <path id="DejaVuSans-63" d="M 3122 3366 
L 3122 2828 
Q 2878 2963 2633 3030 
Q 2388 3097 2138 3097 
Q 1578 3097 1268 2742 
Q 959 2388 959 1747 
Q 959 1106 1268 751 
Q 1578 397 2138 397 
Q 2388 397 2633 464 
Q 2878 531 3122 666 
L 3122 134 
Q 2881 22 2623 -34 
Q 2366 -91 2075 -91 
Q 1284 -91 818 406 
Q 353 903 353 1747 
Q 353 2603 823 3093 
Q 1294 3584 2113 3584 
Q 2378 3584 2631 3529 
Q 2884 3475 3122 3366 
z
" transform="scale(0.015625)"/>
       <path id="DejaVuSans-72" d="M 2631 2963 
Q 2534 3019 2420 3045 
Q 2306 3072 2169 3072 
Q 1681 3072 1420 2755 
Q 1159 2438 1159 1844 
L 1159 0 
L 581 0 
L 581 3500 
L 1159 3500 
L 1159 2956 
Q 1341 3275 1631 3429 
Q 1922 3584 2338 3584 
Q 2397 3584 2469 3576 
Q 2541 3569 2628 3553 
L 2631 2963 
z
" transform="scale(0.015625)"/>
       <path id="DejaVuSans-6f" d="M 1959 3097 
Q 1497 3097 1228 2736 
Q 959 2375 959 1747 
Q 959 1119 1226 758 
Q 1494 397 1959 397 
Q 2419 397 2687 759 
Q 2956 1122 2956 1747 
Q 2956 2369 2687 2733 
Q 2419 3097 1959 3097 
z
M 1959 3584 
Q 2709 3584 3137 3096 
Q 3566 2609 3566 1747 
Q 3566 888 3137 398 
Q 2709 -91 1959 -91 
Q 1206 -91 779 398 
Q 353 888 353 1747 
Q 353 2609 779 3096 
Q 1206 3584 1959 3584 
z
" transform="scale(0.015625)"/>
       <path id="DejaVuSans-73" d="M 2834 3397 
L 2834 2853 
Q 2591 2978 2328 3040 
Q 2066 3103 1784 3103 
Q 1356 3103 1142 2972 
Q 928 2841 928 2578 
Q 928 2378 1081 2264 
Q 1234 2150 1697 2047 
L 1894 2003 
Q 2506 1872 2764 1633 
Q 3022 1394 3022 966 
Q 3022 478 2636 193 
Q 2250 -91 1575 -91 
Q 1294 -91 989 -36 
Q 684 19 347 128 
L 347 722 
Q 666 556 975 473 
Q 1284 391 1588 391 
Q 1994 391 2212 530 
Q 2431 669 2431 922 
Q 2431 1156 2273 1281 
Q 2116 1406 1581 1522 
L 1381 1569 
Q 847 1681 609 1914 
Q 372 2147 372 2553 
Q 372 3047 722 3315 
Q 1072 3584 1716 3584 
Q 2034 3584 2315 3537 
Q 2597 3491 2834 3397 
z
" transform="scale(0.015625)"/>
       <path id="DejaVuSans-79" d="M 2059 -325 
Q 1816 -950 1584 -1140 
Q 1353 -1331 966 -1331 
L 506 -1331 
L 506 -850 
L 844 -850 
Q 1081 -850 1212 -737 
Q 1344 -625 1503 -206 
L 1606 56 
L 191 3500 
L 800 3500 
L 1894 763 
L 2988 3500 
L 3597 3500 
L 2059 -325 
z
" transform="scale(0.015625)"/>
       <path id="DejaVuSans-29" d="M 513 4856 
L 1013 4856 
Q 1481 4119 1714 3412 
Q 1947 2706 1947 2009 
Q 1947 1309 1714 600 
Q 1481 -109 1013 -844 
L 513 -844 
Q 928 -128 1133 580 
Q 1338 1288 1338 2009 
Q 1338 2731 1133 3434 
Q 928 4138 513 4856 
z
" transform="scale(0.015625)"/>
      </defs>
      <use xlink:href="#DejaVuSans-43"/>
      <use xlink:href="#DejaVuSans-68" transform="translate(69.824219 0)"/>
      <use xlink:href="#DejaVuSans-61" transform="translate(133.203125 0)"/>
      <use xlink:href="#DejaVuSans-6e" transform="translate(194.482422 0)"/>
      <use xlink:href="#DejaVuSans-6e" transform="translate(257.861328 0)"/>
      <use xlink:href="#DejaVuSans-65" transform="translate(321.240234 0)"/>
      <use xlink:href="#DejaVuSans-6c" transform="translate(382.763672 0)"/>
      <use xlink:href="#DejaVuSans-20" transform="translate(410.546875 0)"/>
      <use xlink:href="#DejaVuSans-28" transform="translate(442.333984 0)"/>
      <use xlink:href="#DejaVuSans-61" transform="translate(481.347656 0)"/>
      <use xlink:href="#DejaVuSans-63" transform="translate(542.626953 0)"/>
      <use xlink:href="#DejaVuSans-72" transform="translate(597.607422 0)"/>
      <use xlink:href="#DejaVuSans-6f" transform="translate(636.470703 0)"/>
      <use xlink:href="#DejaVuSans-73" transform="translate(697.652344 0)"/>
      <use xlink:href="#DejaVuSans-73" transform="translate(749.751953 0)"/>
      <use xlink:href="#DejaVuSans-20" transform="translate(801.851562 0)"/>
      <use xlink:href="#DejaVuSans-61" transform="translate(833.638672 0)"/>
      <use xlink:href="#DejaVuSans-6c" transform="translate(894.917969 0)"/>
      <use xlink:href="#DejaVuSans-6c" transform="translate(922.701172 0)"/>
      <use xlink:href="#DejaVuSans-20" transform="translate(950.484375 0)"/>
      <use xlink:href="#DejaVuSans-6c" transform="translate(982.271484 0)"/>
      <use xlink:href="#DejaVuSans-61" transform="translate(1010.054688 0)"/>
      <use xlink:href="#DejaVuSans-79" transform="translate(1071.333984 0)"/>
      <use xlink:href="#DejaVuSans-65" transform="translate(1130.513672 0)"/>
      <use xlink:href="#DejaVuSans-72" transform="translate(1192.037109 0)"/>
      <use xlink:href="#DejaVuSans-73" transform="translate(1233.150391 0)"/>
      <use xlink:href="#DejaVuSans-29" transform="translate(1285.25 0)"/>
     </g>
    </g>
   </g>
   <g id="matplotlib.axis_2">
    <g id="ytick_1">
     <g id="line2d_7">
      <defs>
       <path id="m28f4582a37" d="M 0 0 
L -3.5 0 
" style="stroke: #000000; stroke-width: 0.8"/>
      </defs>
      <g>
       <use xlink:href="#m28f4582a37" x="73.505" y="246.04" style="stroke: #000000; stroke-width: 0.8"/>
      </g>
     </g>
     <g id="text_8">
      <!-- 0.00000 -->
      <g transform="translate(25.151875 249.839219) scale(0.1 -0.1)">
       <defs>
        <path id="DejaVuSans-2e" d="M 684 794 
L 1344 794 
L 1344 0 
L 684 0 
L 684 794 
z
" transform="scale(0.015625)"/>
       </defs>
       <use xlink:href="#DejaVuSans-30"/>
       <use xlink:href="#DejaVuSans-2e" transform="translate(63.623047 0)"/>
       <use xlink:href="#DejaVuSans-30" transform="translate(95.410156 0)"/>
       <use xlink:href="#DejaVuSans-30" transform="translate(159.033203 0)"/>
       <use xlink:href="#DejaVuSans-30" transform="translate(222.65625 0)"/>
       <use xlink:href="#DejaVuSans-30" transform="translate(286.279297 0)"/>
       <use xlink:href="#DejaVuSans-30" transform="translate(349.902344 0)"/>
      </g>
     </g>
    </g>
    <g id="ytick_2">
     <g id="line2d_8">
      <g>
       <use xlink:href="#m28f4582a37" x="73.505" y="207.376321" style="stroke: #000000; stroke-width: 0.8"/>
      </g>
     </g>
     <g id="text_9">
      <!-- 0.00002 -->
      <g transform="translate(25.151875 211.17554) scale(0.1 -0.1)">
       <use xlink:href="#DejaVuSans-30"/>
       <use xlink:href="#DejaVuSans-2e" transform="translate(63.623047 0)"/>
       <use xlink:href="#DejaVuSans-30" transform="translate(95.410156 0)"/>
       <use xlink:href="#DejaVuSans-30" transform="translate(159.033203 0)"/>
       <use xlink:href="#DejaVuSans-30" transform="translate(222.65625 0)"/>
       <use xlink:href="#DejaVuSans-30" transform="translate(286.279297 0)"/>
       <use xlink:href="#DejaVuSans-32" transform="translate(349.902344 0)"/>
      </g>
     </g>
    </g>
    <g id="ytick_3">
     <g id="line2d_9">
      <g>
       <use xlink:href="#m28f4582a37" x="73.505" y="168.712643" style="stroke: #000000; stroke-width: 0.8"/>
      </g>
     </g>
     <g id="text_10">
      <!-- 0.00004 -->
      <g transform="translate(25.151875 172.511862) scale(0.1 -0.1)">
       <use xlink:href="#DejaVuSans-30"/>
       <use xlink:href="#DejaVuSans-2e" transform="translate(63.623047 0)"/>
       <use xlink:href="#DejaVuSans-30" transform="translate(95.410156 0)"/>
       <use xlink:href="#DejaVuSans-30" transform="translate(159.033203 0)"/>
       <use xlink:href="#DejaVuSans-30" transform="translate(222.65625 0)"/>
       <use xlink:href="#DejaVuSans-30" transform="translate(286.279297 0)"/>
       <use xlink:href="#DejaVuSans-34" transform="translate(349.902344 0)"/>
      </g>
     </g>
    </g>
    <g id="ytick_4">
     <g id="line2d_10">
      <g>
       <use xlink:href="#m28f4582a37" x="73.505" y="130.048964" style="stroke: #000000; stroke-width: 0.8"/>
      </g>
     </g>
     <g id="text_11">
      <!-- 0.00006 -->
      <g transform="translate(25.151875 133.848183) scale(0.1 -0.1)">
       <use xlink:href="#DejaVuSans-30"/>
       <use xlink:href="#DejaVuSans-2e" transform="translate(63.623047 0)"/>
       <use xlink:href="#DejaVuSans-30" transform="translate(95.410156 0)"/>
       <use xlink:href="#DejaVuSans-30" transform="translate(159.033203 0)"/>
       <use xlink:href="#DejaVuSans-30" transform="translate(222.65625 0)"/>
       <use xlink:href="#DejaVuSans-30" transform="translate(286.279297 0)"/>
       <use xlink:href="#DejaVuSans-36" transform="translate(349.902344 0)"/>
      </g>
     </g>
    </g>
    <g id="ytick_5">
     <g id="line2d_11">
      <g>
       <use xlink:href="#m28f4582a37" x="73.505" y="91.385286" style="stroke: #000000; stroke-width: 0.8"/>
      </g>
     </g>
     <g id="text_12">
      <!-- 0.00008 -->
      <g transform="translate(25.151875 95.184505) scale(0.1 -0.1)">
       <use xlink:href="#DejaVuSans-30"/>
       <use xlink:href="#DejaVuSans-2e" transform="translate(63.623047 0)"/>
       <use xlink:href="#DejaVuSans-30" transform="translate(95.410156 0)"/>
       <use xlink:href="#DejaVuSans-30" transform="translate(159.033203 0)"/>
       <use xlink:href="#DejaVuSans-30" transform="translate(222.65625 0)"/>
       <use xlink:href="#DejaVuSans-30" transform="translate(286.279297 0)"/>
       <use xlink:href="#DejaVuSans-38" transform="translate(349.902344 0)"/>
      </g>
     </g>
    </g>
    <g id="ytick_6">
     <g id="line2d_12">
      <g>
       <use xlink:href="#m28f4582a37" x="73.505" y="52.721607" style="stroke: #000000; stroke-width: 0.8"/>
      </g>
     </g>
     <g id="text_13">
      <!-- 0.00010 -->
      <g transform="translate(25.151875 56.520826) scale(0.1 -0.1)">
       <use xlink:href="#DejaVuSans-30"/>
       <use xlink:href="#DejaVuSans-2e" transform="translate(63.623047 0)"/>
       <use xlink:href="#DejaVuSans-30" transform="translate(95.410156 0)"/>
       <use xlink:href="#DejaVuSans-30" transform="translate(159.033203 0)"/>
       <use xlink:href="#DejaVuSans-30" transform="translate(222.65625 0)"/>
       <use xlink:href="#DejaVuSans-31" transform="translate(286.279297 0)"/>
       <use xlink:href="#DejaVuSans-30" transform="translate(349.902344 0)"/>
      </g>
     </g>
    </g>
    <g id="text_14">
     <!-- Mean sqrt(real_grad² + imag_grad²) -->
     <g transform="translate(18.794063 226.292187) rotate(-90) scale(0.1 -0.1)">
      <defs>
       <path id="DejaVuSans-4d" d="M 628 4666 
L 1569 4666 
L 2759 1491 
L 3956 4666 
L 4897 4666 
L 4897 0 
L 4281 0 
L 4281 4097 
L 3078 897 
L 2444 897 
L 1241 4097 
L 1241 0 
L 628 0 
L 628 4666 
z
" transform="scale(0.015625)"/>
       <path id="DejaVuSans-71" d="M 947 1747 
Q 947 1113 1208 752 
Q 1469 391 1925 391 
Q 2381 391 2643 752 
Q 2906 1113 2906 1747 
Q 2906 2381 2643 2742 
Q 2381 3103 1925 3103 
Q 1469 3103 1208 2742 
Q 947 2381 947 1747 
z
M 2906 525 
Q 2725 213 2448 61 
Q 2172 -91 1784 -91 
Q 1150 -91 751 415 
Q 353 922 353 1747 
Q 353 2572 751 3078 
Q 1150 3584 1784 3584 
Q 2172 3584 2448 3432 
Q 2725 3281 2906 2969 
L 2906 3500 
L 3481 3500 
L 3481 -1331 
L 2906 -1331 
L 2906 525 
z
" transform="scale(0.015625)"/>
       <path id="DejaVuSans-74" d="M 1172 4494 
L 1172 3500 
L 2356 3500 
L 2356 3053 
L 1172 3053 
L 1172 1153 
Q 1172 725 1289 603 
Q 1406 481 1766 481 
L 2356 481 
L 2356 0 
L 1766 0 
Q 1100 0 847 248 
Q 594 497 594 1153 
L 594 3053 
L 172 3053 
L 172 3500 
L 594 3500 
L 594 4494 
L 1172 4494 
z
" transform="scale(0.015625)"/>
       <path id="DejaVuSans-5f" d="M 3263 -1063 
L 3263 -1509 
L -63 -1509 
L -63 -1063 
L 3263 -1063 
z
" transform="scale(0.015625)"/>
       <path id="DejaVuSans-67" d="M 2906 1791 
Q 2906 2416 2648 2759 
Q 2391 3103 1925 3103 
Q 1463 3103 1205 2759 
Q 947 2416 947 1791 
Q 947 1169 1205 825 
Q 1463 481 1925 481 
Q 2391 481 2648 825 
Q 2906 1169 2906 1791 
z
M 3481 434 
Q 3481 -459 3084 -895 
Q 2688 -1331 1869 -1331 
Q 1566 -1331 1297 -1286 
Q 1028 -1241 775 -1147 
L 775 -588 
Q 1028 -725 1275 -790 
Q 1522 -856 1778 -856 
Q 2344 -856 2625 -561 
Q 2906 -266 2906 331 
L 2906 616 
Q 2728 306 2450 153 
Q 2172 0 1784 0 
Q 1141 0 747 490 
Q 353 981 353 1791 
Q 353 2603 747 3093 
Q 1141 3584 1784 3584 
Q 2172 3584 2450 3431 
Q 2728 3278 2906 2969 
L 2906 3500 
L 3481 3500 
L 3481 434 
z
" transform="scale(0.015625)"/>
       <path id="DejaVuSans-64" d="M 2906 2969 
L 2906 4863 
L 3481 4863 
L 3481 0 
L 2906 0 
L 2906 525 
Q 2725 213 2448 61 
Q 2172 -91 1784 -91 
Q 1150 -91 751 415 
Q 353 922 353 1747 
Q 353 2572 751 3078 
Q 1150 3584 1784 3584 
Q 2172 3584 2448 3432 
Q 2725 3281 2906 2969 
z
M 947 1747 
Q 947 1113 1208 752 
Q 1469 391 1925 391 
Q 2381 391 2643 752 
Q 2906 1113 2906 1747 
Q 2906 2381 2643 2742 
Q 2381 3103 1925 3103 
Q 1469 3103 1208 2742 
Q 947 2381 947 1747 
z
" transform="scale(0.015625)"/>
       <path id="DejaVuSans-b2" d="M 838 2444 
L 2163 2444 
L 2163 2088 
L 294 2088 
L 294 2431 
Q 400 2528 597 2703 
Q 1672 3656 1672 3950 
Q 1672 4156 1509 4282 
Q 1347 4409 1081 4409 
Q 919 4409 728 4354 
Q 538 4300 313 4191 
L 313 4575 
Q 553 4663 761 4706 
Q 969 4750 1147 4750 
Q 1600 4750 1872 4544 
Q 2144 4338 2144 4000 
Q 2144 3566 1109 2678 
Q 934 2528 838 2444 
z
" transform="scale(0.015625)"/>
       <path id="DejaVuSans-2b" d="M 2944 4013 
L 2944 2272 
L 4684 2272 
L 4684 1741 
L 2944 1741 
L 2944 0 
L 2419 0 
L 2419 1741 
L 678 1741 
L 678 2272 
L 2419 2272 
L 2419 4013 
L 2944 4013 
z
" transform="scale(0.015625)"/>
       <path id="DejaVuSans-69" d="M 603 3500 
L 1178 3500 
L 1178 0 
L 603 0 
L 603 3500 
z
M 603 4863 
L 1178 4863 
L 1178 4134 
L 603 4134 
L 603 4863 
z
" transform="scale(0.015625)"/>
       <path id="DejaVuSans-6d" d="M 3328 2828 
Q 3544 3216 3844 3400 
Q 4144 3584 4550 3584 
Q 5097 3584 5394 3201 
Q 5691 2819 5691 2113 
L 5691 0 
L 5113 0 
L 5113 2094 
Q 5113 2597 4934 2840 
Q 4756 3084 4391 3084 
Q 3944 3084 3684 2787 
Q 3425 2491 3425 1978 
L 3425 0 
L 2847 0 
L 2847 2094 
Q 2847 2600 2669 2842 
Q 2491 3084 2119 3084 
Q 1678 3084 1418 2786 
Q 1159 2488 1159 1978 
L 1159 0 
L 581 0 
L 581 3500 
L 1159 3500 
L 1159 2956 
Q 1356 3278 1631 3431 
Q 1906 3584 2284 3584 
Q 2666 3584 2933 3390 
Q 3200 3197 3328 2828 
z
" transform="scale(0.015625)"/>
      </defs>
      <use xlink:href="#DejaVuSans-4d"/>
      <use xlink:href="#DejaVuSans-65" transform="translate(86.279297 0)"/>
      <use xlink:href="#DejaVuSans-61" transform="translate(147.802734 0)"/>
      <use xlink:href="#DejaVuSans-6e" transform="translate(209.082031 0)"/>
      <use xlink:href="#DejaVuSans-20" transform="translate(272.460938 0)"/>
      <use xlink:href="#DejaVuSans-73" transform="translate(304.248047 0)"/>
      <use xlink:href="#DejaVuSans-71" transform="translate(356.347656 0)"/>
      <use xlink:href="#DejaVuSans-72" transform="translate(419.824219 0)"/>
      <use xlink:href="#DejaVuSans-74" transform="translate(460.9375 0)"/>
      <use xlink:href="#DejaVuSans-28" transform="translate(500.146484 0)"/>
      <use xlink:href="#DejaVuSans-72" transform="translate(539.160156 0)"/>
      <use xlink:href="#DejaVuSans-65" transform="translate(578.023438 0)"/>
      <use xlink:href="#DejaVuSans-61" transform="translate(639.546875 0)"/>
      <use xlink:href="#DejaVuSans-6c" transform="translate(700.826172 0)"/>
      <use xlink:href="#DejaVuSans-5f" transform="translate(728.609375 0)"/>
      <use xlink:href="#DejaVuSans-67" transform="translate(778.609375 0)"/>
      <use xlink:href="#DejaVuSans-72" transform="translate(842.085938 0)"/>
      <use xlink:href="#DejaVuSans-61" transform="translate(883.199219 0)"/>
      <use xlink:href="#DejaVuSans-64" transform="translate(944.478516 0)"/>
      <use xlink:href="#DejaVuSans-b2" transform="translate(1007.955078 0)"/>
      <use xlink:href="#DejaVuSans-20" transform="translate(1048.042969 0)"/>
      <use xlink:href="#DejaVuSans-2b" transform="translate(1079.830078 0)"/>
      <use xlink:href="#DejaVuSans-20" transform="translate(1163.619141 0)"/>
      <use xlink:href="#DejaVuSans-69" transform="translate(1195.40625 0)"/>
      <use xlink:href="#DejaVuSans-6d" transform="translate(1223.189453 0)"/>
      <use xlink:href="#DejaVuSans-61" transform="translate(1320.601562 0)"/>
      <use xlink:href="#DejaVuSans-67" transform="translate(1381.880859 0)"/>
      <use xlink:href="#DejaVuSans-5f" transform="translate(1445.357422 0)"/>
      <use xlink:href="#DejaVuSans-67" transform="translate(1495.357422 0)"/>
      <use xlink:href="#DejaVuSans-72" transform="translate(1558.833984 0)"/>
      <use xlink:href="#DejaVuSans-61" transform="translate(1599.947266 0)"/>
      <use xlink:href="#DejaVuSans-64" transform="translate(1661.226562 0)"/>
      <use xlink:href="#DejaVuSans-b2" transform="translate(1724.703125 0)"/>
      <use xlink:href="#DejaVuSans-29" transform="translate(1764.791016 0)"/>
     </g>
    </g>
   </g>
   <g id="line2d_13">
    <path d="M 208.187801 246.04 
L 208.187801 26.16 
" clip-path="url(#p951f647d79)" style="fill: none; stroke-dasharray: 5.55,2.4; stroke-dashoffset: 0; stroke: #ff0000; stroke-opacity: 0.7; stroke-width: 1.5"/>
   </g>
   <g id="line2d_14">
    <path d="M 301.663429 246.04 
L 301.663429 26.16 
" clip-path="url(#p951f647d79)" style="fill: none; stroke-dasharray: 5.55,2.4; stroke-dashoffset: 0; stroke: #ff0000; stroke-opacity: 0.7; stroke-width: 1.5"/>
   </g>
   <g id="line2d_15">
    <path d="M 395.139058 246.04 
L 395.139058 26.16 
" clip-path="url(#p951f647d79)" style="fill: none; stroke-dasharray: 5.55,2.4; stroke-dashoffset: 0; stroke: #ff0000; stroke-opacity: 0.7; stroke-width: 1.5"/>
   </g>
   <g id="line2d_16">
    <path d="M 519.773229 246.04 
L 519.773229 26.16 
" clip-path="url(#p951f647d79)" style="fill: none; stroke-dasharray: 5.55,2.4; stroke-dashoffset: 0; stroke: #ff0000; stroke-opacity: 0.7; stroke-width: 1.5"/>
   </g>
   <g id="line2d_17">
    <path d="M 644.4074 246.04 
L 644.4074 26.16 
" clip-path="url(#p951f647d79)" style="fill: none; stroke-dasharray: 5.55,2.4; stroke-dashoffset: 0; stroke: #ff0000; stroke-opacity: 0.7; stroke-width: 1.5"/>
   </g>
   <g id="line2d_18">
    <path d="M 769.041571 246.04 
L 769.041571 26.16 
" clip-path="url(#p951f647d79)" style="fill: none; stroke-dasharray: 5.55,2.4; stroke-dashoffset: 0; stroke: #ff0000; stroke-opacity: 0.7; stroke-width: 1.5"/>
   </g>
   <g id="patch_111">
    <path d="M 73.505 246.04 
L 73.505 26.16 
" style="fill: none; stroke: #000000; stroke-width: 0.8; stroke-linejoin: miter; stroke-linecap: square"/>
   </g>
   <g id="patch_112">
    <path d="M 997.2 246.04 
L 997.2 26.16 
" style="fill: none; stroke: #000000; stroke-width: 0.8; stroke-linejoin: miter; stroke-linecap: square"/>
   </g>
   <g id="patch_113">
    <path d="M 73.505 246.04 
L 997.2 246.04 
" style="fill: none; stroke: #000000; stroke-width: 0.8; stroke-linejoin: miter; stroke-linecap: square"/>
   </g>
   <g id="patch_114">
    <path d="M 73.505 26.16 
L 997.2 26.16 
" style="fill: none; stroke: #000000; stroke-width: 0.8; stroke-linejoin: miter; stroke-linecap: square"/>
   </g>
   <g id="text_15">
    <!-- layer1 -->
    <g transform="translate(148.869362 37.060823) scale(0.08 -0.08)">
     <use xlink:href="#DejaVuSans-6c"/>
     <use xlink:href="#DejaVuSans-61" transform="translate(27.783203 0)"/>
     <use xlink:href="#DejaVuSans-79" transform="translate(89.0625 0)"/>
     <use xlink:href="#DejaVuSans-65" transform="translate(148.242188 0)"/>
     <use xlink:href="#DejaVuSans-72" transform="translate(209.765625 0)"/>
     <use xlink:href="#DejaVuSans-31" transform="translate(250.878906 0)"/>
    </g>
   </g>
   <g id="text_16">
    <!-- layer2 -->
    <g transform="translate(242.34499 37.060823) scale(0.08 -0.08)">
     <use xlink:href="#DejaVuSans-6c"/>
     <use xlink:href="#DejaVuSans-61" transform="translate(27.783203 0)"/>
     <use xlink:href="#DejaVuSans-79" transform="translate(89.0625 0)"/>
     <use xlink:href="#DejaVuSans-65" transform="translate(148.242188 0)"/>
     <use xlink:href="#DejaVuSans-72" transform="translate(209.765625 0)"/>
     <use xlink:href="#DejaVuSans-32" transform="translate(250.878906 0)"/>
    </g>
   </g>
   <g id="text_17">
    <!-- layer3 -->
    <g transform="translate(335.820618 37.060823) scale(0.08 -0.08)">
     <defs>
      <path id="DejaVuSans-33" d="M 2597 2516 
Q 3050 2419 3304 2112 
Q 3559 1806 3559 1356 
Q 3559 666 3084 287 
Q 2609 -91 1734 -91 
Q 1441 -91 1130 -33 
Q 819 25 488 141 
L 488 750 
Q 750 597 1062 519 
Q 1375 441 1716 441 
Q 2309 441 2620 675 
Q 2931 909 2931 1356 
Q 2931 1769 2642 2001 
Q 2353 2234 1838 2234 
L 1294 2234 
L 1294 2753 
L 1863 2753 
Q 2328 2753 2575 2939 
Q 2822 3125 2822 3475 
Q 2822 3834 2567 4026 
Q 2313 4219 1838 4219 
Q 1578 4219 1281 4162 
Q 984 4106 628 3988 
L 628 4550 
Q 988 4650 1302 4700 
Q 1616 4750 1894 4750 
Q 2613 4750 3031 4423 
Q 3450 4097 3450 3541 
Q 3450 3153 3228 2886 
Q 3006 2619 2597 2516 
z
" transform="scale(0.015625)"/>
     </defs>
     <use xlink:href="#DejaVuSans-6c"/>
     <use xlink:href="#DejaVuSans-61" transform="translate(27.783203 0)"/>
     <use xlink:href="#DejaVuSans-79" transform="translate(89.0625 0)"/>
     <use xlink:href="#DejaVuSans-65" transform="translate(148.242188 0)"/>
     <use xlink:href="#DejaVuSans-72" transform="translate(209.765625 0)"/>
     <use xlink:href="#DejaVuSans-33" transform="translate(250.878906 0)"/>
    </g>
   </g>
   <g id="text_18">
    <!-- layer4 -->
    <g transform="translate(444.875518 37.060823) scale(0.08 -0.08)">
     <use xlink:href="#DejaVuSans-6c"/>
     <use xlink:href="#DejaVuSans-61" transform="translate(27.783203 0)"/>
     <use xlink:href="#DejaVuSans-79" transform="translate(89.0625 0)"/>
     <use xlink:href="#DejaVuSans-65" transform="translate(148.242188 0)"/>
     <use xlink:href="#DejaVuSans-72" transform="translate(209.765625 0)"/>
     <use xlink:href="#DejaVuSans-34" transform="translate(250.878906 0)"/>
    </g>
   </g>
   <g id="text_19">
    <!-- layer5 -->
    <g transform="translate(569.509689 37.060823) scale(0.08 -0.08)">
     <defs>
      <path id="DejaVuSans-35" d="M 691 4666 
L 3169 4666 
L 3169 4134 
L 1269 4134 
L 1269 2991 
Q 1406 3038 1543 3061 
Q 1681 3084 1819 3084 
Q 2600 3084 3056 2656 
Q 3513 2228 3513 1497 
Q 3513 744 3044 326 
Q 2575 -91 1722 -91 
Q 1428 -91 1123 -41 
Q 819 9 494 109 
L 494 744 
Q 775 591 1075 516 
Q 1375 441 1709 441 
Q 2250 441 2565 725 
Q 2881 1009 2881 1497 
Q 2881 1984 2565 2268 
Q 2250 2553 1709 2553 
Q 1456 2553 1204 2497 
Q 953 2441 691 2322 
L 691 4666 
z
" transform="scale(0.015625)"/>
     </defs>
     <use xlink:href="#DejaVuSans-6c"/>
     <use xlink:href="#DejaVuSans-61" transform="translate(27.783203 0)"/>
     <use xlink:href="#DejaVuSans-79" transform="translate(89.0625 0)"/>
     <use xlink:href="#DejaVuSans-65" transform="translate(148.242188 0)"/>
     <use xlink:href="#DejaVuSans-72" transform="translate(209.765625 0)"/>
     <use xlink:href="#DejaVuSans-35" transform="translate(250.878906 0)"/>
    </g>
   </g>
   <g id="text_20">
    <!-- layer6 -->
    <g transform="translate(694.14386 37.060823) scale(0.08 -0.08)">
     <use xlink:href="#DejaVuSans-6c"/>
     <use xlink:href="#DejaVuSans-61" transform="translate(27.783203 0)"/>
     <use xlink:href="#DejaVuSans-79" transform="translate(89.0625 0)"/>
     <use xlink:href="#DejaVuSans-65" transform="translate(148.242188 0)"/>
     <use xlink:href="#DejaVuSans-72" transform="translate(209.765625 0)"/>
     <use xlink:href="#DejaVuSans-36" transform="translate(250.878906 0)"/>
    </g>
   </g>
   <g id="text_21">
    <!-- layer7 -->
    <g transform="translate(849.936574 37.060823) scale(0.08 -0.08)">
     <defs>
      <path id="DejaVuSans-37" d="M 525 4666 
L 3525 4666 
L 3525 4397 
L 1831 0 
L 1172 0 
L 2766 4134 
L 525 4134 
L 525 4666 
z
" transform="scale(0.015625)"/>
     </defs>
     <use xlink:href="#DejaVuSans-6c"/>
     <use xlink:href="#DejaVuSans-61" transform="translate(27.783203 0)"/>
     <use xlink:href="#DejaVuSans-79" transform="translate(89.0625 0)"/>
     <use xlink:href="#DejaVuSans-65" transform="translate(148.242188 0)"/>
     <use xlink:href="#DejaVuSans-72" transform="translate(209.765625 0)"/>
     <use xlink:href="#DejaVuSans-37" transform="translate(250.878906 0)"/>
    </g>
   </g>
   <g id="text_22">
    <!-- Gradient Magnitude per Channel -->
    <g transform="translate(437.12875 20.16) scale(0.12 -0.12)">
     <defs>
      <path id="DejaVuSans-47" d="M 3809 666 
L 3809 1919 
L 2778 1919 
L 2778 2438 
L 4434 2438 
L 4434 434 
Q 4069 175 3628 42 
Q 3188 -91 2688 -91 
Q 1594 -91 976 548 
Q 359 1188 359 2328 
Q 359 3472 976 4111 
Q 1594 4750 2688 4750 
Q 3144 4750 3555 4637 
Q 3966 4525 4313 4306 
L 4313 3634 
Q 3963 3931 3569 4081 
Q 3175 4231 2741 4231 
Q 1884 4231 1454 3753 
Q 1025 3275 1025 2328 
Q 1025 1384 1454 906 
Q 1884 428 2741 428 
Q 3075 428 3337 486 
Q 3600 544 3809 666 
z
" transform="scale(0.015625)"/>
      <path id="DejaVuSans-75" d="M 544 1381 
L 544 3500 
L 1119 3500 
L 1119 1403 
Q 1119 906 1312 657 
Q 1506 409 1894 409 
Q 2359 409 2629 706 
Q 2900 1003 2900 1516 
L 2900 3500 
L 3475 3500 
L 3475 0 
L 2900 0 
L 2900 538 
Q 2691 219 2414 64 
Q 2138 -91 1772 -91 
Q 1169 -91 856 284 
Q 544 659 544 1381 
z
M 1991 3584 
L 1991 3584 
z
" transform="scale(0.015625)"/>
      <path id="DejaVuSans-70" d="M 1159 525 
L 1159 -1331 
L 581 -1331 
L 581 3500 
L 1159 3500 
L 1159 2969 
Q 1341 3281 1617 3432 
Q 1894 3584 2278 3584 
Q 2916 3584 3314 3078 
Q 3713 2572 3713 1747 
Q 3713 922 3314 415 
Q 2916 -91 2278 -91 
Q 1894 -91 1617 61 
Q 1341 213 1159 525 
z
M 3116 1747 
Q 3116 2381 2855 2742 
Q 2594 3103 2138 3103 
Q 1681 3103 1420 2742 
Q 1159 2381 1159 1747 
Q 1159 1113 1420 752 
Q 1681 391 2138 391 
Q 2594 391 2855 752 
Q 3116 1113 3116 1747 
z
" transform="scale(0.015625)"/>
     </defs>
     <use xlink:href="#DejaVuSans-47"/>
     <use xlink:href="#DejaVuSans-72" transform="translate(77.490234 0)"/>
     <use xlink:href="#DejaVuSans-61" transform="translate(118.603516 0)"/>
     <use xlink:href="#DejaVuSans-64" transform="translate(179.882812 0)"/>
     <use xlink:href="#DejaVuSans-69" transform="translate(243.359375 0)"/>
     <use xlink:href="#DejaVuSans-65" transform="translate(271.142578 0)"/>
     <use xlink:href="#DejaVuSans-6e" transform="translate(332.666016 0)"/>
     <use xlink:href="#DejaVuSans-74" transform="translate(396.044922 0)"/>
     <use xlink:href="#DejaVuSans-20" transform="translate(435.253906 0)"/>
     <use xlink:href="#DejaVuSans-4d" transform="translate(467.041016 0)"/>
     <use xlink:href="#DejaVuSans-61" transform="translate(553.320312 0)"/>
     <use xlink:href="#DejaVuSans-67" transform="translate(614.599609 0)"/>
     <use xlink:href="#DejaVuSans-6e" transform="translate(678.076172 0)"/>
     <use xlink:href="#DejaVuSans-69" transform="translate(741.455078 0)"/>
     <use xlink:href="#DejaVuSans-74" transform="translate(769.238281 0)"/>
     <use xlink:href="#DejaVuSans-75" transform="translate(808.447266 0)"/>
     <use xlink:href="#DejaVuSans-64" transform="translate(871.826172 0)"/>
     <use xlink:href="#DejaVuSans-65" transform="translate(935.302734 0)"/>
     <use xlink:href="#DejaVuSans-20" transform="translate(996.826172 0)"/>
     <use xlink:href="#DejaVuSans-70" transform="translate(1028.613281 0)"/>
     <use xlink:href="#DejaVuSans-65" transform="translate(1092.089844 0)"/>
     <use xlink:href="#DejaVuSans-72" transform="translate(1153.613281 0)"/>
     <use xlink:href="#DejaVuSans-20" transform="translate(1194.726562 0)"/>
     <use xlink:href="#DejaVuSans-43" transform="translate(1226.513672 0)"/>
     <use xlink:href="#DejaVuSans-68" transform="translate(1296.337891 0)"/>
     <use xlink:href="#DejaVuSans-61" transform="translate(1359.716797 0)"/>
     <use xlink:href="#DejaVuSans-6e" transform="translate(1420.996094 0)"/>
     <use xlink:href="#DejaVuSans-6e" transform="translate(1484.375 0)"/>
     <use xlink:href="#DejaVuSans-65" transform="translate(1547.753906 0)"/>
     <use xlink:href="#DejaVuSans-6c" transform="translate(1609.277344 0)"/>
    </g>
   </g>
  </g>
 </g>
 <defs>
  <clipPath id="p951f647d79">
   <rect x="73.505" y="26.16" width="923.695" height="219.88"/>
  </clipPath>
 </defs>
</svg>
