<?xml version="1.0" encoding="utf-8"?>
<!-- Generator: Adobe Illustrator 26.4.1, SVG Export Plug-In . SVG Version: 6.00 Build 0)  -->
<svg version="1.1" id="Layer_1" xmlns="http://www.w3.org/2000/svg" xmlns:xlink="http://www.w3.org/1999/xlink" x="0px" y="0px"
	 viewBox="0 0 1689 246" style="enable-background:new 0 0 1689 246;" xml:space="preserve">
<style type="text/css">
	.st0{font-family:'Arial-BoldMT';}
	.st1{font-size:13.9333px;}
	.st2{fill:none;stroke:#FF00FF;stroke-width:2;stroke-linejoin:round;stroke-miterlimit:10;}
</style>
<g>
	<g transform="translate(874.5009,19.4007)">
		<text transform="matrix(1 0 0 1 -50 -3.9999)" class="st0 st1">Time in ms 100</text>
	</g>
	<g transform="matrix(0.4989,0,0,0.4994,804.4059,26.2411)">
		<g>
			<defs>
				<rect id="SVGID_1_" x="70.4" y="96.6" width="140.2" height="192.8"/>
			</defs>
			<clipPath id="SVGID_00000152970299803414660560000012155869563427256497_">
				<use xlink:href="#SVGID_1_"  style="overflow:visible;"/>
			</clipPath>
			
				<image style="overflow:visible;clip-path:url(#SVGID_00000152970299803414660560000012155869563427256497_);enable-background:new    ;" width="281" height="386" xlink:href="C3EEF7A2.png" >
			</image>
		</g>
	</g>
	<g>
		<path class="st2" d="M822.3,32.7l3.9-2.7l-4.7,0.6"/>
		<path class="st2" d="M819.7,49.4l2.5-2.7l-3.5,1.2"/>
		<path class="st2" d="M817,67.6l1.4-1.8l-2,1"/>
		<path class="st2" d="M816.8,86.3l1.5-1.2l-1.9,0.4"/>
		<path class="st2" d="M815.9,103.2l0.9-1.4l-1.5,0.8"/>
		<path class="st2" d="M812.6,118.9l-1-1.6l0.1,1.9"/>
		<path class="st2" d="M809.6,136.7l-2.3-1l1.5,1.9"/>
		<path class="st2" d="M809.4,155.8l-2.1-0.2l1.7,1.2"/>
		<path class="st2" d="M811.4,173.1l-1.2-0.7l0.8,1.1"/>
		<path class="st2" d="M814,190.1l-0.1-1.4l-0.6,1.2"/>
		<path class="st2" d="M815.5,207.6l0.6-1.7l-1.3,1.2"/>
		<path class="st2" d="M838.9,28.5l2.7-4.5l-4.5,2.7"/>
		<path class="st2" d="M837.2,45.1l1.7-4.7l-3.7,3.3"/>
		<path class="st2" d="M834.6,63.9l0.7-3.6l-2.3,2.8"/>
		<path class="st2" d="M833.6,83.1l0.6-2.6l-1.7,2"/>
		<path class="st2" d="M831.8,101.5l-0.1-1.9l-0.8,1.7"/>
		<path class="st2" d="M828.2,119.1l-1.8-1.2l1,1.9"/>
		<path class="st2" d="M825.3,137.6l-3-0.2l2.6,1.6"/>
		<path class="st2" d="M824.9,157.1l-2.8,0.8l2.8,0.6"/>
		<path class="st2" d="M826.1,175.1l-2.2,0.8l2.3,0.3"/>
		<path class="st2" d="M828.5,192.5l-1.1,0.3l1.1,0.3"/>
		<path class="st2" d="M830.5,209.9l-0.2-0.1L830.5,209.9"/>
		<path class="st2" d="M853,26.7l0.8-4.7l-2.9,3.8"/>
		<path class="st2" d="M853.1,43.4l0.6-5.2l-3,4.3"/>
		<path class="st2" d="M852.6,61.7l0.6-4.7l-2.7,3.9"/>
		<path class="st2" d="M851.8,81.4l0.6-3.5l-2.2,2.9"/>
		<path class="st2" d="M849.2,101.2l-0.2-2l-0.7,1.9"/>
		<path class="st2" d="M844.9,120.2l-2-0.5l1.5,1.4"/>
		<path class="st2" d="M842,139.3l-3.1,0.7l3.1,0.8"/>
		<path class="st2" d="M841.2,158l-3.3,1.4l3.5,0.3"/>
		<path class="st2" d="M841.5,176l-3,1.6l3.4,0"/>
		<path class="st2" d="M842.5,194.2l-2.4,1.7l2.9-0.4"/>
		<path class="st2" d="M844.1,212.3l-1.5,1.7l2.2-0.8"/>
		<path class="st2" d="M869.2,26.7l0.1-4.6l-2.3,4"/>
		<path class="st2" d="M870.6,44l0.7-4.9l-2.9,4"/>
		<path class="st2" d="M872,62.9l1.7-4.5l-3.6,3.2"/>
		<path class="st2" d="M872.7,83l2.5-3.4l-3.8,1.9"/>
		<path class="st2" d="M869.1,103.4l1.3-1.4l-1.8,0.7"/>
		<path class="st2" d="M864,122.5l-0.9,0.3l0.9,0.2"/>
		<path class="st2" d="M860,140.6l-2.6,1.2l2.9,0.1"/>
		<path class="st2" d="M859.1,158.2l-3,1.5l3.4,0.1"/>
		<path class="st2" d="M859.3,176.3l-2.8,1.7l3.3-0.1"/>
		<path class="st2" d="M859.7,195.4l-2.3,2.3l3.2-1"/>
		<path class="st2" d="M860.3,214.3l-1.8,2.9l3-1.7"/>
		<path class="st2" d="M887.1,27.9l0.5-4l-2.3,3.3"/>
		<path class="st2" d="M889.1,46.4l1.7-4l-3.3,2.7"/>
		<path class="st2" d="M891.5,67.1l3.3-2.9l-4.3,1"/>
		<path class="st2" d="M892.3,88.2l4.3-1.4l-4.5-0.8"/>
		<path class="st2" d="M888.8,107.7l3.1,0.2l-2.6-1.6"/>
		<path class="st2" d="M883.7,126.1l0.9,1.6l0-1.8"/>
		<path class="st2" d="M879.9,143.4l-1,2.2l1.9-1.4"/>
		<path class="st2" d="M879.3,160.1l-1.4,1.9l2.2-1"/>
		<path class="st2" d="M880.2,177.4l-1,1.6l1.7-0.9"/>
		<path class="st2" d="M880.8,196l-0.6,2l1.5-1.5"/>
		<path class="st2" d="M880.5,214.7l-0.5,2.6l1.7-2"/>
		<path class="st2" d="M904.1,31.7l0.9-2.2l-1.9,1.5"/>
		<path class="st2" d="M906.8,50l2.4-2.3l-3.2,0.9"/>
		<path class="st2" d="M909.3,70.2l4-1.5l-4.3-0.6"/>
		<path class="st2" d="M909.7,91.1l4.9,0.1l-4.3-2.3"/>
		<path class="st2" d="M907.2,110.7l4,1.5l-2.8-3.2"/>
		<path class="st2" d="M903,128.7l2.1,2.4l-0.7-3.2"/>
		<path class="st2" d="M900.4,145.1l0.7,2.4l0.5-2.4"/>
		<path class="st2" d="M899.6,161.5l0.1,2l0.8-1.8"/>
		<path class="st2" d="M900,178.6l0.3,1.7l0.6-1.6"/>
		<path class="st2" d="M900.5,196.1l0.5,1.6l0.4-1.7"/>
		<path class="st2" d="M900,213.6l0.2,1.7l0.6-1.6"/>
		<path class="st2" d="M920,34.2l0.7-0.7l-0.9,0.3"/>
		<path class="st2" d="M921.4,52.4l1.4-0.6l-1.6-0.1"/>
		<path class="st2" d="M923,71.8l2.5,0l-2.2-1.2"/>
		<path class="st2" d="M923.3,91.7l3.1,1l-2.3-2.4"/>
		<path class="st2" d="M922.1,110.6l2.8,1.9l-1.6-3"/>
		<path class="st2" d="M920.1,128.1l1.8,2.3l-0.5-2.8"/>
		<path class="st2" d="M918.7,144.3l1,1.9l0-2.1"/>
		<path class="st2" d="M917.8,160.8l0.3,1.5l0.4-1.5"/>
		<path class="st2" d="M917.6,178.3l0.2,1.6l0.5-1.5"/>
		<path class="st2" d="M917.9,195.4l0.3,1.3l0.3-1.3"/>
		<path class="st2" d="M917.7,212.1l0.1,1l0.4-0.9"/>
		<path class="st2" d="M936.8,34.7l0.4-0.3l-0.5,0.1"/>
		<path class="st2" d="M937,52.7l0.6-0.1l-0.6-0.1"/>
		<path class="st2" d="M936.9,71.6l0.8,0.6l-0.4-0.9"/>
		<path class="st2" d="M936.5,91.1l1,1.5l-0.1-1.8"/>
		<path class="st2" d="M935.9,109.9l0.9,2.2l0.3-2.4"/>
		<path class="st2" d="M935.4,127.2l0.6,2.2l0.5-2.3"/>
		<path class="st2" d="M934.9,143.2l0.1,1.6l0.7-1.5"/>
		<path class="st2" d="M934.4,160.1l-0.2,1.4l0.8-1.1"/>
		<path class="st2" d="M934.4,178.3l-0.1,1.7l0.9-1.5"/>
		<path class="st2" d="M935.1,195.5l0.2,1.4l0.5-1.3"/>
		<path class="st2" d="M935.7,212l0.3,0.8l0.2-0.9"/>
		<line class="st2" x1="813.2" y1="35" x2="826.2" y2="30"/>
		<line class="st2" x1="813.2" y1="52.5" x2="822.2" y2="46.7"/>
		<line class="st2" x1="813.2" y1="70" x2="818.3" y2="65.8"/>
		<line class="st2" x1="813.2" y1="87.6" x2="818.2" y2="85.1"/>
		<line class="st2" x1="813.2" y1="105.1" x2="816.9" y2="101.8"/>
		<line class="st2" x1="813.2" y1="122.6" x2="811.6" y2="117.3"/>
		<line class="st2" x1="813.2" y1="140.1" x2="807.4" y2="135.7"/>
		<line class="st2" x1="813.2" y1="157.7" x2="807.3" y2="155.6"/>
		<line class="st2" x1="813.2" y1="175.2" x2="810.2" y2="172.5"/>
		<line class="st2" x1="813.2" y1="192.7" x2="813.9" y2="188.8"/>
		<line class="st2" x1="813.2" y1="210.2" x2="816.1" y2="205.9"/>
		<line class="st2" x1="830.7" y1="35" x2="841.6" y2="24"/>
		<line class="st2" x1="830.7" y1="52.5" x2="839" y2="40.5"/>
		<line class="st2" x1="830.7" y1="70" x2="835.3" y2="60.3"/>
		<line class="st2" x1="830.7" y1="87.6" x2="834.2" y2="80.5"/>
		<line class="st2" x1="830.7" y1="105.1" x2="831.7" y2="99.6"/>
		<line class="st2" x1="830.7" y1="122.6" x2="826.4" y2="117.9"/>
		<line class="st2" x1="830.7" y1="140.1" x2="822.3" y2="137.4"/>
		<line class="st2" x1="830.7" y1="157.7" x2="822.1" y2="157.9"/>
		<line class="st2" x1="830.7" y1="175.2" x2="824" y2="175.8"/>
		<line class="st2" x1="830.7" y1="192.7" x2="827.4" y2="192.7"/>
		<line class="st2" x1="830.7" y1="210.2" x2="830.3" y2="209.7"/>
		<line class="st2" x1="848.2" y1="35" x2="853.8" y2="22"/>
		<line class="st2" x1="848.2" y1="52.5" x2="853.7" y2="38.2"/>
		<line class="st2" x1="848.2" y1="70" x2="853.2" y2="57"/>
		<line class="st2" x1="848.2" y1="87.6" x2="852.4" y2="77.9"/>
		<line class="st2" x1="848.2" y1="105.1" x2="849" y2="99.2"/>
		<line class="st2" x1="848.2" y1="122.6" x2="842.9" y2="119.6"/>
		<line class="st2" x1="848.2" y1="140.1" x2="838.9" y2="140.1"/>
		<line class="st2" x1="848.2" y1="157.7" x2="837.9" y2="159.4"/>
		<line class="st2" x1="848.2" y1="175.2" x2="838.4" y2="177.6"/>
		<line class="st2" x1="848.2" y1="192.7" x2="840.1" y2="196"/>
		<line class="st2" x1="848.2" y1="210.2" x2="842.6" y2="214"/>
		<line class="st2" x1="865.7" y1="35" x2="869.4" y2="22.1"/>
		<line class="st2" x1="865.7" y1="52.5" x2="871.3" y2="39.1"/>
		<line class="st2" x1="865.7" y1="70" x2="873.7" y2="58.5"/>
		<line class="st2" x1="865.7" y1="87.6" x2="875.2" y2="79.5"/>
		<line class="st2" x1="865.7" y1="105.1" x2="870.3" y2="102"/>
		<line class="st2" x1="865.7" y1="122.6" x2="863.1" y2="122.7"/>
		<line class="st2" x1="865.7" y1="140.1" x2="857.4" y2="141.8"/>
		<line class="st2" x1="865.7" y1="157.7" x2="856.1" y2="159.7"/>
		<line class="st2" x1="865.7" y1="175.2" x2="856.5" y2="177.9"/>
		<line class="st2" x1="865.7" y1="192.7" x2="857.4" y2="197.7"/>
		<line class="st2" x1="865.7" y1="210.2" x2="858.5" y2="217.2"/>
		<line class="st2" x1="883.3" y1="35" x2="887.6" y2="23.9"/>
		<line class="st2" x1="883.3" y1="52.5" x2="890.8" y2="42.4"/>
		<line class="st2" x1="883.3" y1="70" x2="894.8" y2="64.3"/>
		<line class="st2" x1="883.3" y1="87.6" x2="896.6" y2="86.8"/>
		<line class="st2" x1="883.3" y1="105.1" x2="891.9" y2="107.9"/>
		<line class="st2" x1="883.3" y1="122.6" x2="884.6" y2="127.7"/>
		<line class="st2" x1="883.3" y1="140.1" x2="878.9" y2="145.6"/>
		<line class="st2" x1="883.3" y1="157.7" x2="877.8" y2="162"/>
		<line class="st2" x1="883.3" y1="175.2" x2="879.1" y2="179"/>
		<line class="st2" x1="883.3" y1="192.7" x2="880.2" y2="198"/>
		<line class="st2" x1="883.3" y1="210.2" x2="880" y2="217.2"/>
		<line class="st2" x1="900.8" y1="35" x2="905" y2="29.5"/>
		<line class="st2" x1="900.8" y1="52.5" x2="909.2" y2="47.7"/>
		<line class="st2" x1="900.8" y1="70" x2="913.4" y2="68.7"/>
		<line class="st2" x1="900.8" y1="87.6" x2="914.6" y2="91.2"/>
		<line class="st2" x1="900.8" y1="105.1" x2="911.2" y2="112.2"/>
		<line class="st2" x1="900.8" y1="122.6" x2="905.1" y2="131.1"/>
		<line class="st2" x1="900.8" y1="140.1" x2="901.2" y2="147.5"/>
		<line class="st2" x1="900.8" y1="157.7" x2="899.8" y2="163.5"/>
		<line class="st2" x1="900.8" y1="175.2" x2="900.3" y2="180.3"/>
		<line class="st2" x1="900.8" y1="192.7" x2="901" y2="197.7"/>
		<line class="st2" x1="900.8" y1="210.2" x2="900.2" y2="215.3"/>
		<line class="st2" x1="918.3" y1="35" x2="920.7" y2="33.6"/>
		<line class="st2" x1="918.3" y1="52.5" x2="922.9" y2="51.8"/>
		<line class="st2" x1="918.3" y1="70" x2="925.5" y2="71.8"/>
		<line class="st2" x1="918.3" y1="87.6" x2="926.4" y2="92.7"/>
		<line class="st2" x1="918.3" y1="105.1" x2="924.9" y2="112.5"/>
		<line class="st2" x1="918.3" y1="122.6" x2="921.9" y2="130.4"/>
		<line class="st2" x1="918.3" y1="140.1" x2="919.7" y2="146.2"/>
		<line class="st2" x1="918.3" y1="157.7" x2="918.1" y2="162.3"/>
		<line class="st2" x1="918.3" y1="175.2" x2="917.8" y2="179.8"/>
		<line class="st2" x1="918.3" y1="192.7" x2="918.2" y2="196.7"/>
		<line class="st2" x1="918.3" y1="210.2" x2="917.8" y2="213.1"/>
		<line class="st2" x1="935.8" y1="35" x2="937.2" y2="34.4"/>
		<line class="st2" x1="935.8" y1="52.5" x2="937.6" y2="52.5"/>
		<line class="st2" x1="935.8" y1="70" x2="937.6" y2="72.2"/>
		<line class="st2" x1="935.8" y1="87.6" x2="937.5" y2="92.7"/>
		<line class="st2" x1="935.8" y1="105.1" x2="936.8" y2="112.1"/>
		<line class="st2" x1="935.8" y1="122.6" x2="936" y2="129.5"/>
		<line class="st2" x1="935.8" y1="140.1" x2="935" y2="144.9"/>
		<line class="st2" x1="935.8" y1="157.7" x2="934.2" y2="161.5"/>
		<line class="st2" x1="935.8" y1="175.2" x2="934.3" y2="180"/>
		<line class="st2" x1="935.8" y1="192.7" x2="935.3" y2="196.9"/>
		<line class="st2" x1="935.8" y1="210.2" x2="936" y2="212.8"/>
	</g>
</g>
</svg>
