<?xml version="1.0" encoding="utf-8"?>
<!-- Generator: Adobe Illustrator 26.4.1, SVG Export Plug-In . SVG Version: 6.00 Build 0)  -->
<svg version="1.1" id="Layer_1" xmlns="http://www.w3.org/2000/svg" xmlns:xlink="http://www.w3.org/1999/xlink" x="0px" y="0px"
	 viewBox="0 0 1689 246" style="enable-background:new 0 0 1689 246;" xml:space="preserve">
<style type="text/css">
	.st0{font-family:'Arial-BoldMT';}
	.st1{font-size:13.9333px;}
	.st2{fill:none;stroke:#FF00FF;stroke-width:2;stroke-linejoin:round;stroke-miterlimit:10;}
</style>
<g>
	<g transform="translate(874.5009,19.4007)">
		<text transform="matrix(1 0 0 1 -50 -3.9999)" class="st0 st1">Time in ms 120</text>
	</g>
	<g transform="matrix(0.4998,0,0,0.4993,804.7781,27.2648)">
		<g>
			<defs>
				<rect id="SVGID_1_" x="69.8" y="96.1" width="139.4" height="191.7"/>
			</defs>
			<clipPath id="SVGID_00000169538801159266785720000005744842342499844242_">
				<use xlink:href="#SVGID_1_"  style="overflow:visible;"/>
			</clipPath>
			
				<image style="overflow:visible;clip-path:url(#SVGID_00000169538801159266785720000005744842342499844242_);enable-background:new    ;" width="279" height="384" xlink:href="D6F3ADD0.png" >
			</image>
		</g>
	</g>
	<g>
		<path class="st2" d="M818.9,33.1l2-2.3l-2.9,1.1"/>
		<path class="st2" d="M818,50.7l1.6-2.1l-2.4,1.1"/>
		<path class="st2" d="M815.5,69.1l0.6-1.2l-1.1,0.8"/>
		<path class="st2" d="M814.4,87.4l0.3-0.6l-0.5,0.4"/>
		<path class="st2" d="M813.3,104.6l-0.3-0.5l0,0.6"/>
		<path class="st2" d="M812.1,121.5l-1-0.5l0.6,0.9"/>
		<path class="st2" d="M810.9,139.1l-1.5-0.2l1.2,0.9"/>
		<path class="st2" d="M810.7,157l-1.5,0l1.3,0.7"/>
		<path class="st2" d="M812.1,173.9l-0.9-0.5l0.6,0.8"/>
		<path class="st2" d="M814.2,190.7l-0.1-1.2l-0.5,1.1"/>
		<path class="st2" d="M815.2,207.9l0.4-1.4l-1,1.1"/>
		<path class="st2" d="M837.7,29.8l2.1-4.1l-3.8,2.7"/>
		<path class="st2" d="M835.8,47.2l1.2-3.8l-2.8,2.8"/>
		<path class="st2" d="M833.1,66.2l0.2-2.6l-1.4,2.2"/>
		<path class="st2" d="M832.1,85.4l0-1.6l-0.7,1.4"/>
		<path class="st2" d="M830.6,103.8l-0.5-0.8l0.1,1"/>
		<path class="st2" d="M828.6,121.6l-1.3-0.3l1.1,0.9"/>
		<path class="st2" d="M826.9,139.6l-2.1,0.3l2,0.7"/>
		<path class="st2" d="M826.5,158l-2.1,0.8l2.2,0.3"/>
		<path class="st2" d="M827.4,175.5l-1.7,0.7l1.8,0.2"/>
		<path class="st2" d="M829.3,192.5l-0.8,0.1l0.8,0.3"/>
		<path class="st2" d="M830.9,209.5l-0.1-0.4l-0.1,0.4"/>
		<path class="st2" d="M853.8,27.1l1-5.1l-3.3,4.1"/>
		<path class="st2" d="M852.5,44.6l0.4-4.9l-2.6,4.1"/>
		<path class="st2" d="M851.5,64.3l0.3-3.7l-2,3.1"/>
		<path class="st2" d="M850.6,84.3l0.4-2.3l-1.4,1.8"/>
		<path class="st2" d="M848.6,103.8l-0.2-0.9l-0.2,0.9"/>
		<path class="st2" d="M845.8,122.5l-1.3,0.2l1.2,0.5"/>
		<path class="st2" d="M843.4,140.8l-2.3,1l2.5,0.2"/>
		<path class="st2" d="M842.8,158.7l-2.5,1.3l2.8,0"/>
		<path class="st2" d="M843,176.2l-2.4,1.3l2.7,0"/>
		<path class="st2" d="M843.9,193.8l-1.9,1.3l2.3-0.2"/>
		<path class="st2" d="M845.4,211.4l-1.2,1.1l1.6-0.4"/>
		<path class="st2" d="M870.3,27.2l0.5-4.9l-2.8,4.1"/>
		<path class="st2" d="M870.3,45.1l0.6-4.7l-2.8,3.9"/>
		<path class="st2" d="M870.4,64.8l1.1-3.7l-2.7,2.8"/>
		<path class="st2" d="M870,85.2l1.4-2.2l-2.3,1.3"/>
		<path class="st2" d="M867.4,105.2l0.6-0.5l-0.8,0.2"/>
		<path class="st2" d="M863.7,123.9l-0.8,0.7l1.1-0.3"/>
		<path class="st2" d="M860.4,141.5l-2.4,1.4l2.7-0.1"/>
		<path class="st2" d="M859.8,158.7l-2.7,1.4l3,0"/>
		<path class="st2" d="M860.2,176.3l-2.5,1.4l2.8-0.1"/>
		<path class="st2" d="M860.8,194.9l-2,1.9l2.6-0.7"/>
		<path class="st2" d="M861.6,213.4l-1.4,2.2l2.3-1.3"/>
		<path class="st2" d="M887,29.4l0.6-3.8l-2.3,3.1"/>
		<path class="st2" d="M888.1,47.5l1.2-3.6l-2.8,2.6"/>
		<path class="st2" d="M889.3,68.1l2.3-2.4l-3.2,1"/>
		<path class="st2" d="M889,88.3l2.7-1l-2.9-0.4"/>
		<path class="st2" d="M886.5,107.9l1.9,0.4l-1.5-1.3"/>
		<path class="st2" d="M882.9,126.6l0.5,1.7l0.4-1.7"/>
		<path class="st2" d="M879.6,144.1l-1,2.3l2-1.6"/>
		<path class="st2" d="M879.3,160.6l-1.4,1.9l2.1-1.1"/>
		<path class="st2" d="M880.2,177.6l-1,1.6l1.6-0.9"/>
		<path class="st2" d="M880.9,196l-0.5,1.9l1.3-1.4"/>
		<path class="st2" d="M880.9,214.4l-0.3,2.4l1.4-1.9"/>
		<path class="st2" d="M903.3,32.8l0.7-2l-1.5,1.4"/>
		<path class="st2" d="M905.5,51l1.9-2l-2.6,0.9"/>
		<path class="st2" d="M907.3,71l3.1-1.1l-3.3-0.5"/>
		<path class="st2" d="M907.4,91.2l3.7,0.1l-3.2-1.9"/>
		<path class="st2" d="M905.1,110.1l2.9,1.2l-2-2.5"/>
		<path class="st2" d="M902.4,128.4l1.8,2.2l-0.6-2.7"/>
		<path class="st2" d="M900.3,145.3l0.7,2.3l0.4-2.4"/>
		<path class="st2" d="M899.5,161.7l0.1,2l0.8-1.8"/>
		<path class="st2" d="M899.8,178.7l0.2,1.7l0.6-1.6"/>
		<path class="st2" d="M900.2,196.1l0.4,1.6l0.4-1.6"/>
		<path class="st2" d="M899.6,213.5l0.1,1.7l0.7-1.5"/>
		<path class="st2" d="M919.5,35.2l0.5-0.6l-0.8,0.3"/>
		<path class="st2" d="M920.8,53.3l1.2-0.6l-1.4-0.1"/>
		<path class="st2" d="M922,72.4l2.1,0l-1.9-1"/>
		<path class="st2" d="M922.1,91.8l2.5,0.9l-1.8-2"/>
		<path class="st2" d="M921.1,110.2l2.2,1.5l-1.3-2.4"/>
		<path class="st2" d="M919.7,127.8l1.6,1.9l-0.5-2.4"/>
		<path class="st2" d="M918.6,144.3l0.9,1.7l0-1.9"/>
		<path class="st2" d="M917.6,160.8l0.3,1.4l0.4-1.4"/>
		<path class="st2" d="M917.4,178.3l0.2,1.5l0.5-1.4"/>
		<path class="st2" d="M917.7,195.4l0.3,1.3l0.3-1.3"/>
		<path class="st2" d="M917.4,212l0,1l0.4-0.8"/>
		<path class="st2" d="M936.6,35.6l0.4-0.4l-0.6,0.1"/>
		<path class="st2" d="M936.7,53.4l0.5-0.2l-0.6,0"/>
		<path class="st2" d="M936.3,72.1l0.6,0.5l-0.3-0.7"/>
		<path class="st2" d="M935.8,91.2l0.7,1.3l0-1.5"/>
		<path class="st2" d="M935.3,109.6l0.6,1.9l0.3-2"/>
		<path class="st2" d="M935.1,127.1l0.5,1.9l0.4-1.9"/>
		<path class="st2" d="M934.6,143.3l0.1,1.4l0.6-1.3"/>
		<path class="st2" d="M934.2,160.3l-0.2,1.3l0.8-1.1"/>
		<path class="st2" d="M934.2,178.5l0,1.7l0.8-1.5"/>
		<path class="st2" d="M935,195.6l0.3,1.4l0.4-1.3"/>
		<path class="st2" d="M935.6,211.8l0.3,0.7l0-0.8"/>
		<line class="st2" x1="813.5" y1="36" x2="820.9" y2="30.8"/>
		<line class="st2" x1="813.5" y1="53.4" x2="819.6" y2="48.5"/>
		<line class="st2" x1="813.5" y1="70.8" x2="816.1" y2="67.9"/>
		<line class="st2" x1="813.5" y1="88.3" x2="814.7" y2="86.8"/>
		<line class="st2" x1="813.5" y1="105.7" x2="813" y2="104.1"/>
		<line class="st2" x1="813.5" y1="123.1" x2="811.1" y2="121.1"/>
		<line class="st2" x1="813.5" y1="140.6" x2="809.4" y2="138.9"/>
		<line class="st2" x1="813.5" y1="158" x2="809.3" y2="157.1"/>
		<line class="st2" x1="813.5" y1="175.4" x2="811.2" y2="173.4"/>
		<line class="st2" x1="813.5" y1="192.9" x2="814.1" y2="189.5"/>
		<line class="st2" x1="813.5" y1="210.3" x2="815.6" y2="206.4"/>
		<line class="st2" x1="830.9" y1="36" x2="839.8" y2="25.7"/>
		<line class="st2" x1="830.9" y1="53.4" x2="837" y2="43.4"/>
		<line class="st2" x1="830.9" y1="70.8" x2="833.3" y2="63.6"/>
		<line class="st2" x1="830.9" y1="88.3" x2="832.1" y2="83.8"/>
		<line class="st2" x1="830.9" y1="105.7" x2="830" y2="102.9"/>
		<line class="st2" x1="830.9" y1="123.1" x2="827.3" y2="121.4"/>
		<line class="st2" x1="830.9" y1="140.6" x2="824.8" y2="139.9"/>
		<line class="st2" x1="830.9" y1="158" x2="824.5" y2="158.8"/>
		<line class="st2" x1="830.9" y1="175.4" x2="825.7" y2="176.1"/>
		<line class="st2" x1="830.9" y1="192.9" x2="828.4" y2="192.6"/>
		<line class="st2" x1="830.9" y1="210.3" x2="830.8" y2="209.2"/>
		<line class="st2" x1="848.4" y1="36" x2="854.8" y2="22"/>
		<line class="st2" x1="848.4" y1="53.4" x2="852.9" y2="39.7"/>
		<line class="st2" x1="848.4" y1="70.8" x2="851.8" y2="60.6"/>
		<line class="st2" x1="848.4" y1="88.3" x2="851" y2="82.1"/>
		<line class="st2" x1="848.4" y1="105.7" x2="848.3" y2="102.9"/>
		<line class="st2" x1="848.4" y1="123.1" x2="844.5" y2="122.7"/>
		<line class="st2" x1="848.4" y1="140.6" x2="841.2" y2="141.8"/>
		<line class="st2" x1="848.4" y1="158" x2="840.3" y2="160"/>
		<line class="st2" x1="848.4" y1="175.4" x2="840.6" y2="177.5"/>
		<line class="st2" x1="848.4" y1="192.9" x2="842" y2="195.1"/>
		<line class="st2" x1="848.4" y1="210.3" x2="844.2" y2="212.5"/>
		<line class="st2" x1="865.8" y1="36" x2="870.8" y2="22.3"/>
		<line class="st2" x1="865.8" y1="53.4" x2="870.9" y2="40.4"/>
		<line class="st2" x1="865.8" y1="70.8" x2="871.5" y2="61.1"/>
		<line class="st2" x1="865.8" y1="88.3" x2="871.4" y2="83"/>
		<line class="st2" x1="865.8" y1="105.7" x2="868" y2="104.6"/>
		<line class="st2" x1="865.8" y1="123.1" x2="862.9" y2="124.7"/>
		<line class="st2" x1="865.8" y1="140.6" x2="858.1" y2="142.9"/>
		<line class="st2" x1="865.8" y1="158" x2="857.1" y2="160"/>
		<line class="st2" x1="865.8" y1="175.4" x2="857.7" y2="177.7"/>
		<line class="st2" x1="865.8" y1="192.9" x2="858.8" y2="196.8"/>
		<line class="st2" x1="865.8" y1="210.3" x2="860.2" y2="215.6"/>
		<line class="st2" x1="883.2" y1="36" x2="887.6" y2="25.6"/>
		<line class="st2" x1="883.2" y1="53.4" x2="889.3" y2="43.9"/>
		<line class="st2" x1="883.2" y1="70.8" x2="891.6" y2="65.7"/>
		<line class="st2" x1="883.2" y1="88.3" x2="891.8" y2="87.3"/>
		<line class="st2" x1="883.2" y1="105.7" x2="888.4" y2="108.3"/>
		<line class="st2" x1="883.2" y1="123.1" x2="883.4" y2="128.2"/>
		<line class="st2" x1="883.2" y1="140.6" x2="878.6" y2="146.5"/>
		<line class="st2" x1="883.2" y1="158" x2="877.9" y2="162.5"/>
		<line class="st2" x1="883.2" y1="175.4" x2="879.2" y2="179.2"/>
		<line class="st2" x1="883.2" y1="192.9" x2="880.4" y2="197.9"/>
		<line class="st2" x1="883.2" y1="210.3" x2="880.5" y2="216.8"/>
		<line class="st2" x1="900.6" y1="36" x2="904" y2="30.8"/>
		<line class="st2" x1="900.6" y1="53.4" x2="907.4" y2="49"/>
		<line class="st2" x1="900.6" y1="70.8" x2="910.4" y2="69.8"/>
		<line class="st2" x1="900.6" y1="88.3" x2="911" y2="91.3"/>
		<line class="st2" x1="900.6" y1="105.7" x2="908" y2="111.3"/>
		<line class="st2" x1="900.6" y1="123.1" x2="904.2" y2="130.5"/>
		<line class="st2" x1="900.6" y1="140.6" x2="901" y2="147.6"/>
		<line class="st2" x1="900.6" y1="158" x2="899.7" y2="163.7"/>
		<line class="st2" x1="900.6" y1="175.4" x2="900.1" y2="180.4"/>
		<line class="st2" x1="900.6" y1="192.9" x2="900.6" y2="197.7"/>
		<line class="st2" x1="900.6" y1="210.3" x2="899.7" y2="215.2"/>
		<line class="st2" x1="918.1" y1="36" x2="920.1" y2="34.6"/>
		<line class="st2" x1="918.1" y1="53.4" x2="922" y2="52.7"/>
		<line class="st2" x1="918.1" y1="70.8" x2="924.2" y2="72.5"/>
		<line class="st2" x1="918.1" y1="88.3" x2="924.6" y2="92.7"/>
		<line class="st2" x1="918.1" y1="105.7" x2="923.4" y2="111.7"/>
		<line class="st2" x1="918.1" y1="123.1" x2="921.4" y2="129.7"/>
		<line class="st2" x1="918.1" y1="140.6" x2="919.5" y2="146"/>
		<line class="st2" x1="918.1" y1="158" x2="917.9" y2="162.2"/>
		<line class="st2" x1="918.1" y1="175.4" x2="917.6" y2="179.8"/>
		<line class="st2" x1="918.1" y1="192.9" x2="918" y2="196.7"/>
		<line class="st2" x1="918.1" y1="210.3" x2="917.4" y2="213"/>
		<line class="st2" x1="935.5" y1="36" x2="937" y2="35.2"/>
		<line class="st2" x1="935.5" y1="53.4" x2="937.2" y2="53.1"/>
		<line class="st2" x1="935.5" y1="70.8" x2="936.9" y2="72.6"/>
		<line class="st2" x1="935.5" y1="88.3" x2="936.5" y2="92.6"/>
		<line class="st2" x1="935.5" y1="105.7" x2="936" y2="111.5"/>
		<line class="st2" x1="935.5" y1="123.1" x2="935.6" y2="129"/>
		<line class="st2" x1="935.5" y1="140.6" x2="934.7" y2="144.8"/>
		<line class="st2" x1="935.5" y1="158" x2="934" y2="161.6"/>
		<line class="st2" x1="935.5" y1="175.4" x2="934.2" y2="180.2"/>
		<line class="st2" x1="935.5" y1="192.9" x2="935.3" y2="196.9"/>
		<line class="st2" x1="935.5" y1="210.3" x2="935.9" y2="212.5"/>
	</g>
</g>
</svg>
