<?xml version="1.0" encoding="UTF-8" standalone="no"?>
<svg width="107.95mm" height="65.6167mm"
 viewBox="0 0 306 186"
 xmlns="http://www.w3.org/2000/svg" xmlns:xlink="http://www.w3.org/1999/xlink"  version="1.2" baseProfile="tiny">
<title>Qt SVG Document</title>
<desc>MATLAB, The MathWorks, Inc. Version 25.1.0.2973910 R2025a Update 1</desc>
<defs>
</defs>
<g fill="none" stroke="black" stroke-width="1" fill-rule="evenodd" stroke-linecap="square" stroke-linejoin="bevel" >

<g fill="#ffffff" fill-opacity="1" stroke="none" transform="matrix(0.75,0,0,0.75,0,0)"
font-family="Sans Serif" font-size="9" font-weight="400" font-style="normal" 
>
<path vector-effect="none" fill-rule="evenodd" d="M0,0 L408,0 L408,249 L0,249 L0,0"/>
</g>

<g fill="#ffffff" fill-opacity="1" stroke="none" transform="matrix(7.5e-05,0,0,7.5e-05,0,0)"
font-family="Sans Serif" font-size="9" font-weight="400" font-style="normal" 
>
<path vector-effect="none" fill-rule="evenodd" d="M570000,240000 L570000,2.03e+06 L3.68e+06,2.03e+06 L3.68e+06,240000 L570000,240000"/>
</g>

<g fill="#212121" fill-opacity="1" stroke="#212121" stroke-opacity="1" stroke-width="1" stroke-linecap="square" stroke-linejoin="bevel" transform="matrix(0.75,0,0,0.75,151.125,12.525)"
font-family="Helvetica" font-size="17" font-weight="700" font-style="normal" 
>
<text fill="#212121" fill-opacity="1" stroke="none" xml:space="preserve" x="0" y="0" font-family="Helvetica" font-size="17" font-weight="700" font-style="normal" 
 >B6</text>
</g>

<g fill="#1171be" fill-opacity="0.6" stroke="none" transform="matrix(7.5e-05,0,0,7.5e-05,0,0)"
font-family="Helvetica" font-size="17" font-weight="700" font-style="normal" 
>
<path vector-effect="none" fill-rule="evenodd" d="M818800,2.02403e+06 L818800,2.03e+06 L1.0054e+06,2.03e+06 L1.0054e+06,2.02403e+06 L818800,2.02403e+06"/>
</g>

<g fill="#1171be" fill-opacity="0.6" stroke="none" transform="matrix(7.5e-05,0,0,7.5e-05,0,0)"
font-family="Helvetica" font-size="17" font-weight="700" font-style="normal" 
>
<path vector-effect="none" fill-rule="evenodd" d="M1.0054e+06,1.89277e+06 L1.0054e+06,2.03e+06 L1.192e+06,2.03e+06 L1.192e+06,1.89277e+06 L1.0054e+06,1.89277e+06"/>
</g>

<g fill="#1171be" fill-opacity="0.6" stroke="none" transform="matrix(7.5e-05,0,0,7.5e-05,0,0)"
font-family="Helvetica" font-size="17" font-weight="700" font-style="normal" 
>
<path vector-effect="none" fill-rule="evenodd" d="M1.192e+06,1.62427e+06 L1.192e+06,2.03e+06 L1.3786e+06,2.03e+06 L1.3786e+06,1.62427e+06 L1.192e+06,1.62427e+06"/>
</g>

<g fill="#1171be" fill-opacity="0.6" stroke="none" transform="matrix(7.5e-05,0,0,7.5e-05,0,0)"
font-family="Helvetica" font-size="17" font-weight="700" font-style="normal" 
>
<path vector-effect="none" fill-rule="evenodd" d="M1.3786e+06,1.36173e+06 L1.3786e+06,2.03e+06 L1.5652e+06,2.03e+06 L1.5652e+06,1.36173e+06 L1.3786e+06,1.36173e+06"/>
</g>

<g fill="#1171be" fill-opacity="0.6" stroke="none" transform="matrix(7.5e-05,0,0,7.5e-05,0,0)"
font-family="Helvetica" font-size="17" font-weight="700" font-style="normal" 
>
<path vector-effect="none" fill-rule="evenodd" d="M1.5652e+06,568166 L1.5652e+06,2.03e+06 L1.7518e+06,2.03e+06 L1.7518e+06,568166 L1.5652e+06,568166"/>
</g>

<g fill="#1171be" fill-opacity="0.6" stroke="none" transform="matrix(7.5e-05,0,0,7.5e-05,0,0)"
font-family="Helvetica" font-size="17" font-weight="700" font-style="normal" 
>
<path vector-effect="none" fill-rule="evenodd" d="M1.7518e+06,293700 L1.7518e+06,2.03e+06 L1.9384e+06,2.03e+06 L1.9384e+06,293700 L1.7518e+06,293700"/>
</g>

<g fill="#1171be" fill-opacity="0.6" stroke="none" transform="matrix(7.5e-05,0,0,7.5e-05,0,0)"
font-family="Helvetica" font-size="17" font-weight="700" font-style="normal" 
>
<path vector-effect="none" fill-rule="evenodd" d="M1.9384e+06,1.0455e+06 L1.9384e+06,2.03e+06 L2.125e+06,2.03e+06 L2.125e+06,1.0455e+06 L1.9384e+06,1.0455e+06"/>
</g>

<g fill="#1171be" fill-opacity="0.6" stroke="none" transform="matrix(7.5e-05,0,0,7.5e-05,0,0)"
font-family="Helvetica" font-size="17" font-weight="700" font-style="normal" 
>
<path vector-effect="none" fill-rule="evenodd" d="M2.125e+06,1.17677e+06 L2.125e+06,2.03e+06 L2.3116e+06,2.03e+06 L2.3116e+06,1.17677e+06 L2.125e+06,1.17677e+06"/>
</g>

<g fill="#1171be" fill-opacity="0.6" stroke="none" transform="matrix(7.5e-05,0,0,7.5e-05,0,0)"
font-family="Helvetica" font-size="17" font-weight="700" font-style="normal" 
>
<path vector-effect="none" fill-rule="evenodd" d="M2.3116e+06,1.57653e+06 L2.3116e+06,2.03e+06 L2.4982e+06,2.03e+06 L2.4982e+06,1.57653e+06 L2.3116e+06,1.57653e+06"/>
</g>

<g fill="#1171be" fill-opacity="0.6" stroke="none" transform="matrix(7.5e-05,0,0,7.5e-05,0,0)"
font-family="Helvetica" font-size="17" font-weight="700" font-style="normal" 
>
<path vector-effect="none" fill-rule="evenodd" d="M2.4982e+06,1.91067e+06 L2.4982e+06,2.03e+06 L2.6848e+06,2.03e+06 L2.6848e+06,1.91067e+06 L2.4982e+06,1.91067e+06"/>
</g>

<g fill="#1171be" fill-opacity="0.6" stroke="none" transform="matrix(7.5e-05,0,0,7.5e-05,0,0)"
font-family="Helvetica" font-size="17" font-weight="700" font-style="normal" 
>
<path vector-effect="none" fill-rule="evenodd" d="M2.6848e+06,1.9405e+06 L2.6848e+06,2.03e+06 L2.8714e+06,2.03e+06 L2.8714e+06,1.9405e+06 L2.6848e+06,1.9405e+06"/>
</g>

<g fill="#1171be" fill-opacity="0.6" stroke="none" transform="matrix(7.5e-05,0,0,7.5e-05,0,0)"
font-family="Helvetica" font-size="17" font-weight="700" font-style="normal" 
>
<path vector-effect="none" fill-rule="evenodd" d="M2.8714e+06,2.01807e+06 L2.8714e+06,2.03e+06 L3.058e+06,2.03e+06 L3.058e+06,2.01807e+06 L2.8714e+06,2.01807e+06"/>
</g>

<g fill="none" stroke="#212121" stroke-opacity="1" stroke-width="0.666667" stroke-linecap="square" stroke-linejoin="miter" stroke-miterlimit="2" transform="matrix(0.75,0,0,0.75,0,0)"
font-family="Helvetica" font-size="17" font-weight="700" font-style="normal" 
>
<polyline fill="none" vector-effect="none" points="81.88,203 81.88,202.403 100.54,202.403 " />
<polyline fill="none" vector-effect="none" points="100.54,203 100.54,203 100.54,189.277 119.2,189.277 " />
<polyline fill="none" vector-effect="none" points="119.2,203 119.2,203 119.2,162.427 137.86,162.427 " />
<polyline fill="none" vector-effect="none" points="137.86,203 137.86,203 137.86,136.173 156.52,136.173 " />
<polyline fill="none" vector-effect="none" points="156.52,203 156.52,203 156.52,56.8167 175.18,56.8167 " />
<polyline fill="none" vector-effect="none" points="175.18,203 175.18,203 175.18,29.37 193.84,29.37 193.84,203 193.84,203 " />
<polyline fill="none" vector-effect="none" points="193.84,104.55 212.5,104.55 212.5,203 212.5,203 " />
<polyline fill="none" vector-effect="none" points="212.5,117.677 231.16,117.677 231.16,203 231.16,203 " />
<polyline fill="none" vector-effect="none" points="231.16,157.653 249.82,157.653 249.82,203 249.82,203 " />
<polyline fill="none" vector-effect="none" points="249.82,191.067 268.48,191.067 268.48,203 268.48,203 " />
<polyline fill="none" vector-effect="none" points="268.48,194.05 287.14,194.05 287.14,203 287.14,203 " />
<polyline fill="none" vector-effect="none" points="287.14,201.807 305.8,201.807 305.8,203 " />
</g>

<g fill="#212121" fill-opacity="1" stroke="#212121" stroke-opacity="1" stroke-width="1" stroke-linecap="square" stroke-linejoin="bevel" transform="matrix(0.75,0,0,0.75,51.375,182.4)"
font-family="Helvetica" font-size="17" font-weight="400" font-style="normal" 
>
<text fill="#212121" fill-opacity="1" stroke="none" xml:space="preserve" x="0" y="0" font-family="Helvetica" font-size="17" font-weight="400" font-style="normal" 
 >Number of traveling waves/sec (Freq.)</text>
</g>

<g fill="#212121" fill-opacity="1" stroke="#212121" stroke-opacity="1" stroke-width="1.33333" stroke-linecap="square" stroke-linejoin="round" transform="matrix(0.75,0,0,0.75,0,0)"
font-family="Helvetica" font-size="17" font-weight="400" font-style="normal" 
>
<polyline fill="none" vector-effect="none" points="57,203 368,203 " />
<polyline fill="none" vector-effect="none" points="57,203 57,199.89 " />
<polyline fill="none" vector-effect="none" points="119.2,203 119.2,199.89 " />
<polyline fill="none" vector-effect="none" points="181.4,203 181.4,199.89 " />
<polyline fill="none" vector-effect="none" points="243.6,203 243.6,199.89 " />
<polyline fill="none" vector-effect="none" points="305.8,203 305.8,199.89 " />
<polyline fill="none" vector-effect="none" points="368,203 368,199.89 " />
</g>

<g fill="#212121" fill-opacity="1" stroke="#212121" stroke-opacity="1" stroke-width="1" stroke-linecap="square" stroke-linejoin="bevel" transform="matrix(0.75,0,0,0.75,39.375,167.9)"
font-family="Helvetica" font-size="16" font-weight="400" font-style="normal" 
>
<text fill="#212121" fill-opacity="1" stroke="none" xml:space="preserve" x="0" y="0" font-family="Helvetica" font-size="16" font-weight="400" font-style="normal" 
 >0</text>
</g>

<g fill="#212121" fill-opacity="1" stroke="#212121" stroke-opacity="1" stroke-width="1" stroke-linecap="square" stroke-linejoin="bevel" transform="matrix(0.75,0,0,0.75,86.025,167.9)"
font-family="Helvetica" font-size="16" font-weight="400" font-style="normal" 
>
<text fill="#212121" fill-opacity="1" stroke="none" xml:space="preserve" x="0" y="0" font-family="Helvetica" font-size="16" font-weight="400" font-style="normal" 
 >1</text>
</g>

<g fill="#212121" fill-opacity="1" stroke="#212121" stroke-opacity="1" stroke-width="1" stroke-linecap="square" stroke-linejoin="bevel" transform="matrix(0.75,0,0,0.75,132.675,167.9)"
font-family="Helvetica" font-size="16" font-weight="400" font-style="normal" 
>
<text fill="#212121" fill-opacity="1" stroke="none" xml:space="preserve" x="0" y="0" font-family="Helvetica" font-size="16" font-weight="400" font-style="normal" 
 >2</text>
</g>

<g fill="#212121" fill-opacity="1" stroke="#212121" stroke-opacity="1" stroke-width="1" stroke-linecap="square" stroke-linejoin="bevel" transform="matrix(0.75,0,0,0.75,179.325,167.9)"
font-family="Helvetica" font-size="16" font-weight="400" font-style="normal" 
>
<text fill="#212121" fill-opacity="1" stroke="none" xml:space="preserve" x="0" y="0" font-family="Helvetica" font-size="16" font-weight="400" font-style="normal" 
 >3</text>
</g>

<g fill="#212121" fill-opacity="1" stroke="#212121" stroke-opacity="1" stroke-width="1" stroke-linecap="square" stroke-linejoin="bevel" transform="matrix(0.75,0,0,0.75,225.975,167.9)"
font-family="Helvetica" font-size="16" font-weight="400" font-style="normal" 
>
<text fill="#212121" fill-opacity="1" stroke="none" xml:space="preserve" x="0" y="0" font-family="Helvetica" font-size="16" font-weight="400" font-style="normal" 
 >4</text>
</g>

<g fill="#212121" fill-opacity="1" stroke="#212121" stroke-opacity="1" stroke-width="1" stroke-linecap="square" stroke-linejoin="bevel" transform="matrix(0.75,0,0,0.75,272.625,167.9)"
font-family="Helvetica" font-size="16" font-weight="400" font-style="normal" 
>
<text fill="#212121" fill-opacity="1" stroke="none" xml:space="preserve" x="0" y="0" font-family="Helvetica" font-size="16" font-weight="400" font-style="normal" 
 >5</text>
</g>

<g fill="#212121" fill-opacity="1" stroke="#212121" stroke-opacity="1" stroke-width="1" stroke-linecap="square" stroke-linejoin="bevel" transform="matrix(0,-0.75,0.75,0,12.1,138)"
font-family="Helvetica" font-size="17" font-weight="400" font-style="normal" 
>
<text fill="#212121" fill-opacity="1" stroke="none" xml:space="preserve" x="0" y="0" font-family="Helvetica" font-size="17" font-weight="400" font-style="normal" 
 >Count across trials</text>
</g>

<g fill="#212121" fill-opacity="1" stroke="#212121" stroke-opacity="1" stroke-width="1.33333" stroke-linecap="square" stroke-linejoin="round" transform="matrix(0.75,0,0,0.75,0,0)"
font-family="Helvetica" font-size="17" font-weight="400" font-style="normal" 
>
<polyline fill="none" vector-effect="none" points="57,203 57,24 " />
<polyline fill="none" vector-effect="none" points="57,203 60.11,203 " />
<polyline fill="none" vector-effect="none" points="57,143.333 60.11,143.333 " />
<polyline fill="none" vector-effect="none" points="57,83.6667 60.11,83.6667 " />
<polyline fill="none" vector-effect="none" points="57,24 60.11,24 " />
</g>

<g fill="#212121" fill-opacity="1" stroke="#212121" stroke-opacity="1" stroke-width="1" stroke-linecap="square" stroke-linejoin="bevel" transform="matrix(0.75,0,0,0.75,31.6,156.375)"
font-family="Helvetica" font-size="16" font-weight="400" font-style="normal" 
>
<text fill="#212121" fill-opacity="1" stroke="none" xml:space="preserve" x="0" y="0" font-family="Helvetica" font-size="16" font-weight="400" font-style="normal" 
 >0</text>
</g>

<g fill="#212121" fill-opacity="1" stroke="#212121" stroke-opacity="1" stroke-width="1" stroke-linecap="square" stroke-linejoin="bevel" transform="matrix(0.75,0,0,0.75,18.1,111.625)"
font-family="Helvetica" font-size="16" font-weight="400" font-style="normal" 
>
<text fill="#212121" fill-opacity="1" stroke="none" xml:space="preserve" x="0" y="0" font-family="Helvetica" font-size="16" font-weight="400" font-style="normal" 
 >100</text>
</g>

<g fill="#212121" fill-opacity="1" stroke="#212121" stroke-opacity="1" stroke-width="1" stroke-linecap="square" stroke-linejoin="bevel" transform="matrix(0.75,0,0,0.75,18.1,66.875)"
font-family="Helvetica" font-size="16" font-weight="400" font-style="normal" 
>
<text fill="#212121" fill-opacity="1" stroke="none" xml:space="preserve" x="0" y="0" font-family="Helvetica" font-size="16" font-weight="400" font-style="normal" 
 >200</text>
</g>

<g fill="#212121" fill-opacity="1" stroke="#212121" stroke-opacity="1" stroke-width="1" stroke-linecap="square" stroke-linejoin="bevel" transform="matrix(0.75,0,0,0.75,18.1,22.125)"
font-family="Helvetica" font-size="16" font-weight="400" font-style="normal" 
>
<text fill="#212121" fill-opacity="1" stroke="none" xml:space="preserve" x="0" y="0" font-family="Helvetica" font-size="16" font-weight="400" font-style="normal" 
 >300</text>
</g>
</g>
</svg>
